<svg width="41" height="41" viewBox="0 0 41 41" fill="none" xmlns="http://www.w3.org/2000/svg">
<rect x="0.799988" y="0.189941" width="40" height="40" rx="8" fill="#E8E8E8"/>
<path d="M13.8131 10.4399L12.8972 12.0899L8.72772 19.4242V19.6722C8.72772 22.2456 10.8105 24.3393 13.3706 24.3393C15.9306 24.3393 18.0134 22.2456 18.0134 19.6722V19.4242L14.1033 12.5438L18.0189 14.0205C18.0186 14.038 18.0134 14.0541 18.0134 14.0716C18.0134 15.2865 18.7923 16.3138 19.8706 16.7005V28.073H16.1563V29.9399H19.8706H21.7277V28.073V16.7005C22.1936 16.5335 22.5976 16.2463 22.912 15.8746L27.2901 17.5865L23.5849 24.1059V24.3539C23.5849 26.9264 25.6677 29.0065 28.2277 29.0065C30.7878 29.0065 32.8706 26.9264 32.8706 24.3539V24.1059L28.2277 15.9384L23.5794 14.1299C23.5799 14.11 23.5849 14.0916 23.5849 14.0716C23.5849 12.5277 22.335 11.2713 20.7992 11.2713C19.9465 11.2713 19.1923 11.6672 18.6809 12.2758L13.8131 10.4399ZM20.7992 13.1381C21.3117 13.1381 21.7277 13.5573 21.7277 14.0716C21.7277 14.5859 21.3117 15.005 20.7992 15.005C20.2866 15.005 19.8706 14.5859 19.8706 14.0716C19.8706 13.5573 20.2866 13.1381 20.7992 13.1381ZM13.3706 15.0196L15.4853 18.7387H11.2559L13.3706 15.0196ZM28.2277 19.7014L30.3333 23.4059H26.1221L28.2277 19.7014ZM10.7572 20.6056H15.984C15.5993 21.6899 14.5797 22.4724 13.3706 22.4724C12.1614 22.4724 11.1418 21.6899 10.7572 20.6056ZM25.6089 25.2727H30.8466C30.4661 26.3647 29.4424 27.1542 28.2277 27.1542C27.0131 27.1542 25.9894 26.3647 25.6089 25.2727Z" fill="#2B2A29"/>
</svg>
