<svg width="74" height="69" viewBox="0 0 74 69" fill="none" xmlns="http://www.w3.org/2000/svg">
<path d="M74 10.6522C74 12.9787 71.9342 14.8568 69.375 14.8568H4.625C2.06583 14.8568 0 12.9787 0 10.6522C0 8.32567 2.06583 6.44763 4.625 6.44763H69.375C71.9342 6.44763 74 8.32567 74 10.6522ZM20.0417 56.9025H4.625C2.06583 56.9025 0 58.7806 0 61.1071C0 63.4336 2.06583 65.3117 4.625 65.3117H20.0417C22.6008 65.3117 24.6667 63.4336 24.6667 61.1071C24.6667 58.7806 22.6008 56.9025 20.0417 56.9025ZM44.7083 31.6751H4.625C2.06583 31.6751 0 33.5531 0 35.8796C0 38.2062 2.06583 40.0842 4.625 40.0842H44.7083C47.2675 40.0842 49.3333 38.2062 49.3333 35.8796C49.3333 33.5531 47.2675 31.6751 44.7083 31.6751Z" fill="#FCA311"/>
</svg>
