<svg width="74" height="67" viewBox="0 0 74 67" fill="none" xmlns="http://www.w3.org/2000/svg">
<path d="M74 10.3564C74 12.6273 71.9342 14.4604 69.375 14.4604H4.625C2.06583 14.4604 0 12.6273 0 10.3564C0 8.08556 2.06583 6.25244 4.625 6.25244H69.375C71.9342 6.25244 74 8.08556 74 10.3564ZM20.0417 55.5004H4.625C2.06583 55.5004 0 57.3335 0 59.6044C0 61.8753 2.06583 63.7084 4.625 63.7084H20.0417C22.6008 63.7084 24.6667 61.8753 24.6667 59.6044C24.6667 57.3335 22.6008 55.5004 20.0417 55.5004ZM44.7083 30.8764H4.625C2.06583 30.8764 0 32.7095 0 34.9804C0 37.2513 2.06583 39.0844 4.625 39.0844H44.7083C47.2675 39.0844 49.3333 37.2513 49.3333 34.9804C49.3333 32.7095 47.2675 30.8764 44.7083 30.8764Z" fill="#FCA311"/>
</svg>
