<svg width="74" height="63" viewBox="0 0 74 63" fill="none" xmlns="http://www.w3.org/2000/svg">
<path d="M74 9.32256C74 11.4734 71.9342 13.2097 69.375 13.2097H4.625C2.06583 13.2097 0 11.4734 0 9.32256C0 7.17168 2.06583 5.43542 4.625 5.43542H69.375C71.9342 5.43542 74 7.17168 74 9.32256ZM20.0417 52.081H4.625C2.06583 52.081 0 53.8173 0 55.9682C0 58.119 2.06583 59.8553 4.625 59.8553H20.0417C22.6008 59.8553 24.6667 58.119 24.6667 55.9682C24.6667 53.8173 22.6008 52.081 20.0417 52.081ZM44.7083 28.7582H4.625C2.06583 28.7582 0 30.4945 0 32.6454C0 34.7962 2.06583 36.5325 4.625 36.5325H44.7083C47.2675 36.5325 49.3333 34.7962 49.3333 32.6454C49.3333 30.4945 47.2675 28.7582 44.7083 28.7582Z" fill="#FCA311"/>
</svg>
