<svg width="41" height="41" viewBox="0 0 41 41" fill="none" xmlns="http://www.w3.org/2000/svg">
<rect x="1.79999" y="1.18994" width="38" height="38" rx="7" fill="white"/>
<rect x="1.79999" y="1.18994" width="38" height="38" rx="7" stroke="#FCA311" stroke-width="2"/>
<path d="M28.9036 13.4157C28.4354 12.9473 27.8795 12.5758 27.2677 12.3222C26.6558 12.0687 26.0001 11.9382 25.3378 11.9382C24.6755 11.9382 24.0197 12.0687 23.4079 12.3222C22.796 12.5758 22.2401 12.9473 21.7719 13.4157L20.8003 14.3874L19.8286 13.4157C18.8829 12.47 17.6002 11.9387 16.2628 11.9387C14.9253 11.9387 13.6426 12.47 12.6969 13.4157C11.7512 14.3615 11.2199 15.6441 11.2199 16.9816C11.2199 18.319 11.7512 19.6017 12.6969 20.5474L13.6686 21.5191L20.8003 28.6507L27.9319 21.5191L28.9036 20.5474C29.372 20.0792 29.7436 19.5233 29.9971 18.9115C30.2506 18.2996 30.3811 17.6439 30.3811 16.9816C30.3811 16.3193 30.2506 15.6635 29.9971 15.0517C29.7436 14.4398 29.372 13.8839 28.9036 13.4157Z" stroke="#FCA311" stroke-width="2" stroke-linecap="round" stroke-linejoin="round"/>
</svg>
