<svg width="60" height="60" viewBox="0 0 60 60" fill="none" xmlns="http://www.w3.org/2000/svg">
<g clip-path="url(#clip0_80_181)">
<path d="M22.5 55C22.5 57.75 20.25 60 17.5 60C14.75 60 12.5 57.75 12.5 55C12.5 52.25 14.75 50 17.5 50C20.25 50 22.5 52.25 22.5 55ZM42.5 50C39.75 50 37.5 52.25 37.5 55C37.5 57.75 39.75 60 42.5 60C45.25 60 47.5 57.75 47.5 55C47.5 52.25 45.25 50 42.5 50ZM40 7.5V12.5H60V7.5H40ZM50.425 32.5H13.55L11.2 12.5H35V7.5H10.6L10.5 6.625C10.05 2.85 6.85 0 3.05 0H0V5H3.05C4.325 5 5.375 5.95 5.525 7.2L9.475 40.875C9.925 44.65 13.125 47.5 16.925 47.5H49.975V42.5H16.95C15.675 42.5 14.625 41.55 14.475 40.3L14.15 37.5H54.575L57.75 20H52.675L50.4 32.5H50.425Z" fill="black"/>
</g>
<defs>
<clipPath id="clip0_80_181">
<rect width="60" height="60" fill="white"/>
</clipPath>
</defs>
</svg>
