<svg width="127" height="102" viewBox="0 0 127 102" fill="none" xmlns="http://www.w3.org/2000/svg">
<path d="M63.5768 93.993C43.4621 93.993 25.1908 86.9768 11.7775 75.5776H8.89526C22.7973 88.039 42.1686 95.7783 63.5768 95.7783C84.985 95.7783 104.366 88.039 118.269 75.5776H115.386C101.963 86.9768 83.6915 93.993 63.5768 93.993Z" fill="#1E2424"/>
<path d="M63.4461 78.3408L65.7607 82.4338L70.9341 83.0903L67.1901 86.2766L68.0744 90.775L63.4461 88.6509L58.8188 90.775L59.7031 86.2766L55.9591 83.0903L61.1325 82.4338L63.4461 78.3408Z" fill="#1E2424"/>
<path d="M44.1362 78.3408L45.8417 81.2965L49.6538 81.7705L46.8955 84.0718L47.5462 87.3211L44.1362 85.7866L40.7273 87.3211L41.3779 84.0718L38.6196 81.7705L42.4317 81.2965L44.1362 78.3408Z" fill="#1E2424"/>
<path d="M27.9801 78.3408L29.0757 80.1599L31.5263 80.4514L29.7532 81.8677L30.1713 83.8671L27.9801 82.9234L25.7878 83.8671L26.207 81.8677L24.4329 80.4514L26.8835 80.1599L27.9801 78.3408Z" fill="#1E2424"/>
<path d="M83.1501 78.3408L81.5673 81.2965L78.0275 81.7705L80.5888 84.0718L79.9847 87.3211L83.1501 85.7866L86.3164 87.3211L85.7123 84.0718L88.2736 81.7705L84.7337 81.2965L83.1501 78.3408Z" fill="#1E2424"/>
<path d="M99.3072 78.3408L98.0898 80.1599L95.3669 80.4514L97.337 81.8677L96.8713 83.8671L99.3072 82.9234L101.743 83.8671L101.277 81.8677L103.249 80.4514L100.525 80.1599L99.3072 78.3408Z" fill="#1E2424"/>
<path d="M112.82 8.39864C112.19 7.6816 111.349 7.15867 110.347 6.81466C110.557 6.93624 111.988 7.76103 112.351 8.82899C112.222 8.65699 111.584 7.90404 109.904 7.23742C106.947 6.0617 103.36 6.65647 101.905 7.05851C100.25 7.51028 98.5283 8.16239 96.7993 9.00861C98.0356 7.68229 98.9082 6.61432 98.9082 6.61432C98.9082 6.61432 99.9179 4.04803 98.9082 3.38832C97.8985 2.73622 95.8138 2.97247 95.8138 2.97247C95.8138 2.97247 85.6506 8.58583 82.1443 10.9152C78.6458 13.2452 75.4143 17.3098 75.4143 17.3098C75.4143 17.3098 74.477 17.1952 74.3805 16.5714C74.2754 15.9407 73.6938 15.3811 73.1201 14.8651C72.5386 14.356 72.8375 14.0189 71.7305 13.8614C71.2455 13.7972 70.8415 13.7612 70.5425 13.7536C70.6476 14.2054 70.7605 14.671 70.8337 14.9798C71.0353 15.7901 71.2782 16.5928 70.8337 17.1302C70.4218 17.6317 68.7169 18.299 68.5068 18.3778C68.6842 18.2562 69.961 17.4528 70.3323 17.0086C70.7363 16.5355 70.5425 16.0553 70.179 14.9798C69.8317 13.9761 69.8637 12.9295 69.8722 12.7935C69.8722 12.7865 69.8722 12.7789 69.8722 12.7789C69.7267 12.0619 69.3226 11.0658 68.2483 10.1836C66.4383 8.69982 65.4769 8.21212 63.9666 9.53153C64.0234 9.9833 64.0554 10.6285 63.902 10.8219C63.7004 11.0803 63.1181 11.8111 62.9001 12.0764C63.0862 11.7966 63.5945 11.0299 63.6272 10.815C63.6677 10.5428 63.6272 9.84722 63.6272 9.84722C63.6272 9.84722 63.2232 8.5064 63.1181 8.14788C63.0854 8.0263 63.0535 7.75344 63.0293 7.43084L62.9569 7.67469C62.3832 8.40624 60.6869 9.69664 60.2665 9.75328C59.8461 9.81062 58.5297 9.36644 57.8267 9.55986C57.1159 9.75328 56.0089 10.4986 56.0089 10.4986C54.7968 10.3625 53.4641 9.70975 53.278 9.53083C53.092 9.35192 53.278 7.49508 53.278 7.49508C57.9232 5.70317 62.1489 6.24751 62.932 6.22609C62.932 6.06099 62.9889 5.73149 62.9966 5.61682C63.0208 4.98613 62.4875 4.34092 62.4875 4.34092C62.4875 4.34092 62.9966 3.91056 61.1703 2.41224C59.3603 0.907006 57.4624 0.548484 54.2309 1.49487C54.2309 1.49487 52.0573 2.16909 51.5085 4.31952C50.9511 6.46995 51.5326 9.08665 51.7101 9.84652C51.8798 10.6133 52.7603 10.7425 52.7525 11.1943C52.7447 11.6384 52.8172 11.9327 52.9464 12.1552C53.0678 12.3776 53.7544 13.1872 54.2309 13.3454C54.4971 13.4317 54.6995 13.4456 54.8365 13.4601C54.8692 13.467 54.8934 13.4746 54.9175 13.4746C54.9175 13.4815 54.9253 13.4815 54.9253 13.4815C54.9658 13.4884 54.9977 13.5029 55.0304 13.5243C55.2164 13.603 55.6119 13.7253 56.4278 13.8897C57.7769 14.155 58.6332 14.7712 58.6332 14.7712C58.6332 14.7712 58.0595 14.5273 56.7586 14.3339C56.2176 14.2551 55.4663 14.155 54.7634 14.0686C54.5695 14.2835 54.2869 14.5847 53.9553 14.9791C53.2204 15.8537 51.7335 17.6455 51.4509 18.4275C51.2407 19.0368 51.2493 20.2699 51.2648 20.7935C51.4665 20.6215 51.7171 20.4564 52.0161 20.3562C52.9939 20.0267 52.6863 20.4135 54.5041 20.1483C56.3219 19.8761 57.6064 19.3739 58.5437 19.0154C59.4888 18.6569 61.5572 17.9398 62.1714 17.5171C62.7857 17.1012 63.561 16.6211 63.7954 16.112C64.0375 15.6029 63.8522 13.3661 63.8522 13.3661C63.8522 13.3661 64.3045 15.0074 64.1994 15.8467C64.1021 16.6784 63.9978 16.4132 63.0605 17.3665C62.1154 18.3274 60.8387 18.5636 59.0855 19.309C57.3324 20.0543 56.3227 20.2339 55.313 20.5635C54.3033 20.893 53.4952 20.8356 52.5579 20.7424C51.7257 20.6636 50.8211 21.438 50.6109 21.6238C50.6031 21.6383 50.5946 21.6452 50.579 21.6528C50.579 21.6597 50.579 21.6597 50.579 21.6597C50.5712 21.6597 50.5712 21.6667 50.5712 21.6667C50.4178 21.8387 50.2886 22.0252 50.2404 22.2117C50.0948 22.7712 50.4178 23.0434 50.442 23.5594C50.4747 24.0754 50.5953 24.635 50.7246 25.1724C50.846 25.7098 49.1575 31.3087 49.1575 31.3087C49.1575 31.3087 48.3494 31.1512 47.4689 31.4876C46.5799 31.8247 46.0311 33.0792 45.5944 33.8605C45.1825 34.6273 45.142 35.1937 45.1662 35.287C45.1179 35.2586 44.8509 35.316 43.7042 36.3625C42.1207 37.8104 41.4824 38.3195 41.4014 38.7285C41.3127 39.1298 41.2481 39.6818 41.2481 39.6818C41.2481 39.6818 42.2258 38.9502 42.4275 39.0656C42.6291 39.1872 42.3387 41.073 42.3387 41.073C42.3387 41.073 40.626 41.1159 38.5903 41.2519C36.5546 41.3811 33.2989 41.2374 29.6634 42.5354C26.0279 43.8327 22.2467 47.8621 21.94 48.9874C21.6411 50.1058 23.4106 50.8657 24.0085 50.9161C24.6227 50.9589 27.7491 50.3711 29.8736 49.482C31.9903 48.5785 33.5574 47.9982 36.3366 47.7329C39.108 47.4608 42.2422 47.7758 42.2422 47.7758L41.3454 50.751C40.7234 50.7006 40.1013 50.6646 39.463 50.6508C29.2835 50.3925 20.8813 55.1382 20.6874 61.2462C20.4936 67.3611 28.5805 72.5158 38.76 72.7734C48.9309 73.0242 57.3331 68.2784 57.5356 62.1705C57.5675 61.1598 57.3736 60.1706 56.9704 59.2312C57.0513 62.1131 55.7263 64.1779 55.7263 64.1779C57.0272 61.5902 56.3561 59.1379 55.3947 57.4606C53.9405 54.9158 51.3956 53.568 50.0138 52.9373C48.4062 52.2058 46.5963 51.6255 44.6415 51.2311L45.926 47.7758C45.926 47.7758 47.9454 47.8186 51.282 49.3459C54.6108 50.8657 56.0728 51.6325 57.0825 51.8052C58.0922 51.9917 58.3997 51.9412 58.7469 51.0881C58.7469 51.0812 58.7547 51.0736 58.7547 51.0591C59.2155 49.9338 58.8434 48.6717 57.9552 47.7689C57.7045 47.5036 57.3978 47.2238 57.0342 46.9372C55.1113 45.4174 51.7179 43.8617 51.7179 43.8617C51.7179 43.8617 51.6455 43.0231 52.6225 43.0231C53.6003 43.0231 56.6621 43.5965 57.7045 44.0697C58.7547 44.5498 57.6072 45.568 58.5126 46.7292C59.4257 47.898 61.0816 48.8154 61.0816 48.8154C61.421 49.0088 62.2532 49.3674 63.2948 48.9874C64.6603 48.4928 64.1029 47.5036 65.5166 46.8798C65.7914 46.7651 66.0818 46.6214 66.3893 46.4639C65.5975 46.7575 64.8541 46.9081 64.1675 46.9081C62.6564 46.9081 60.8387 45.3525 59.7239 44.4275C58.6169 43.5025 57.2358 42.0975 57.098 41.2374C56.9688 40.3698 57.534 39.6175 57.9061 39.7681C57.9061 39.7681 58.6496 40.2482 60.2976 39.947C61.9457 39.6535 69.5235 33.5241 70.0248 33.1656C70.5339 32.807 73.0547 30.4197 73.563 30.4846C74.0636 30.5419 79.7512 36.6927 79.8244 36.9366C79.8244 37.1873 73.4338 41.9621 70.5012 44.0697C71.1637 44.0766 72.6584 44.0269 73.7974 43.5177C75.3084 42.8442 77.1822 40.8796 77.1822 40.8796C77.1822 40.8796 77.1822 42.4422 78.0868 42.8007C79 43.1592 80.7687 42.8007 82.3849 41.9545C84.001 41.1014 84.5981 39.2086 85.7619 38.2049C86.925 37.2011 88.6945 35.5881 88.7428 34.6494C88.7832 33.9254 88.4033 32.8789 87.6684 32.4195C86.1901 32.9928 83.8064 33.9751 83.3385 34.4912C82.6596 35.251 82.757 36.1684 82.054 36.5774C81.3432 36.9787 79.404 37.8747 79.404 37.8747C79.404 37.8747 81.4234 36.4627 81.5207 36.1898C81.6258 35.9246 82.2315 35.7021 82.3849 35.0928C82.5304 34.4905 82.5304 34.132 83.0395 33.8598C83.5401 33.5945 86.5459 32.2254 86.5459 32.2254L86.9258 32.1826L88.3963 31.4372C82.6604 30.6269 82.9353 27.1218 82.9353 27.1218C84.6557 30.8852 89.6489 30.6062 89.6489 30.6062C93.8418 30.5917 99.2874 28.7279 104.28 25.2726C112.303 19.7186 116.132 12.1628 112.82 8.39864ZM52.8584 9.38853C52.8584 9.38853 52.2846 9.28077 51.897 9.08735C51.897 9.08735 51.679 8.00487 51.6058 7.0799C51.6058 7.0799 52.2847 7.43844 52.8584 7.51028C52.8584 7.51028 52.7697 9.001 52.8584 9.38853ZM51.7195 5.28041C51.8409 3.47399 53.1815 2.36251 53.1815 2.36251C52.8421 3.20873 53.5692 4.19794 54.2721 4.09018C54.9829 3.99002 57.3581 2.68511 57.8267 2.62777C58.2953 2.57044 60.2665 2.76385 60.2665 2.76385C59.9434 2.16908 59.3214 1.65998 59.3214 1.65998C60.7032 2.19741 62.0196 3.96099 62.0196 3.96099L61.4296 3.53823C61.4296 3.53823 58.3109 3.19422 57.9637 3.35931C57.6079 3.52441 54.659 5.13741 53.8673 5.27349C53.0764 5.40958 51.7195 5.28041 51.7195 5.28041ZM66.4391 9.3091C67.1335 9.61028 68.4671 10.6209 68.8789 11.2378C69.2907 11.8547 69.307 12.9509 69.2993 13.3744C69.2829 13.7757 69.606 15.0952 69.6387 15.2527C69.5741 15.1166 69.0572 13.9982 68.766 13.3171C68.4593 12.5931 68.4102 11.8547 68.4102 11.8547C68.4102 11.8547 67.74 12.98 66.8268 13.3171C66.8268 13.3171 67.8933 12.0481 67.8451 11.1093C67.8451 11.1093 67.5383 10.4213 66.9404 10.1629C66.9404 10.1629 66.9809 11.4174 66.0273 12.0267C66.0273 12.0267 66.6571 10.27 66.2453 9.89764C65.8249 9.53222 65.2029 9.28146 65.2029 9.28146C65.2029 9.28146 65.7361 9.00861 66.4391 9.3091ZM59.9925 22.9301C60.1295 24.7579 63.2886 25.4107 63.6848 25.4819C63.3859 25.446 61.7215 25.2311 60.8488 24.722C59.8874 24.1632 59.9925 22.9301 59.9925 22.9301ZM54.6443 25.1165C55.5893 24.3276 55.6867 23.5539 55.9934 23.31C56.2596 23.0952 58.3849 22.2918 58.7889 22.1488C58.4977 22.3139 57.2296 23.0019 56.462 23.7901C55.5893 24.6861 55.0724 26.0483 52.8592 25.9406C52.8592 25.9406 53.6984 25.9053 54.6443 25.1165ZM55.8478 29.6328C56.0985 30.0128 56.0097 31.4469 56.0097 31.4469L55.1775 31.7764C55.218 31.6617 55.6135 30.5861 55.4687 30.077C55.3231 29.5396 55.0646 29.2957 55.3963 28.8011C55.7279 28.3065 56.2363 27.9266 56.325 27.26C56.325 27.26 56.4784 27.8624 56.0261 28.3355C55.573 28.8011 55.5971 29.2529 55.8478 29.6328ZM50.6693 31.6472C50.92 31.0524 51.8728 27.2524 52.0589 26.4925C52.0021 26.7647 51.9055 27.4458 52.0908 28.3922C52.3251 29.6467 52.1881 29.733 52.0908 30.4853C51.9857 31.2306 51.461 33.1662 51.461 33.1662L50.2333 33.4101C50.2333 33.4101 50.4023 32.3069 50.6693 31.6472ZM33.9778 42.5223C30.5844 42.7586 25.4541 44.9594 22.2226 49.0026C22.4087 48.6731 24.024 45.9631 27.0134 44.2141C30.2044 42.3503 32.8708 41.9559 33.8322 41.8412C33.8322 41.8412 36.8371 41.6623 38.7841 41.5476C40.7233 41.4398 42.4197 41.5476 42.4197 41.5476L43.8334 42.085L43.5026 43.2034C43.5026 43.2034 37.379 42.2785 33.9778 42.5223ZM53.3434 60.4089C53.2064 64.9468 46.6134 68.4594 38.6316 68.2591C30.6575 68.0581 24.2996 64.2159 24.4452 59.685C24.5908 55.1541 31.1752 51.6414 39.157 51.8425C39.779 51.857 40.3847 51.8998 40.9826 51.964L40.7646 52.688C40.2313 52.6376 39.6903 52.6016 39.1329 52.5878C31.6112 52.4013 25.4066 55.5914 25.2696 59.7133C25.2533 60.1223 25.3023 60.5236 25.4066 60.9105C26.3603 57.2472 32.1849 54.5372 39.1329 54.7092C39.4723 54.7161 39.8032 54.7382 40.1426 54.7597L39.3431 57.4123C36.4829 57.5484 34.237 58.8464 34.237 60.4373C34.237 62.1145 36.7414 63.4698 39.8273 63.4698C42.9132 63.4698 45.4176 62.1152 45.4176 60.4373C45.4176 59.2256 44.1168 58.186 42.2344 57.699L43.1795 55.161C48.0185 56.1143 51.6463 58.4803 52.3812 61.3187C52.4622 61.0175 52.5104 60.7094 52.5182 60.3937C52.6233 57.1968 49.036 54.379 43.9058 53.1888L44.1721 52.4863C49.6269 53.7919 53.4563 56.8818 53.3434 60.4089ZM44.4157 59.5841C44.4321 59.6705 44.4399 59.7561 44.4399 59.8425C44.4399 61.2116 42.3559 62.33 39.7861 62.33C37.2248 62.33 35.1408 61.2116 35.1408 59.8425C35.1408 59.7561 35.1486 59.6705 35.165 59.5841C35.3993 60.8386 37.3868 61.8133 39.7861 61.8133C42.1947 61.814 44.1814 60.8386 44.4157 59.5841ZM53.1332 39.1457C53.1332 39.1457 52.7938 38.8874 52.2847 38.6221C51.7841 38.3499 50.7417 37.8767 50.7417 37.8767C50.7417 37.8767 50.3377 37.6978 50.3058 37.6329C50.2653 37.5756 51.2103 37.1093 51.1621 36.8157C51.1138 36.5145 51.1784 35.9626 51.1784 35.9626C51.1784 35.9626 51.8331 36.2492 52.7619 36.6796C53.6182 37.0741 54.329 37.6978 54.329 37.6978L53.1332 39.1457ZM50.7339 34.8587C50.1041 35.4396 50.3058 36.8012 50.3058 36.8012L48.0676 37.6039C48.0676 37.6039 46.3954 37.425 44.4803 37.7545C42.6789 38.0626 42.5256 38.1634 42.4205 38.2063L44.1814 36.5787C44.1814 36.5787 45.1833 35.604 46.9037 34.9443C48.6164 34.2922 50.305 33.8259 51.9203 33.4391C53.5365 33.0523 56.6784 31.5754 56.6784 31.5754L57.0661 32.1563C57.0661 32.1563 56.0237 33.4253 55.0467 33.5904C54.0705 33.7548 51.3637 34.2784 50.7339 34.8587ZM63.9666 35.0666C63.6677 35.3678 63.4816 35.5184 63.094 35.7263C62.7063 35.9342 61.4295 36.873 60.8239 37.081C60.2182 37.2958 59.9107 37.1597 59.9107 37.1597C59.9107 37.1597 59.8461 37.7261 60.1692 38.3354C60.4603 38.9019 60.581 38.9233 60.6051 38.9233C60.6051 38.9233 59.692 39.8483 59.474 39.7833C59.256 39.726 58.8193 39.4607 58.8193 39.174C58.8193 38.8874 59.1501 38.2491 59.3043 38.0985C59.4576 37.9479 59.474 37.6039 59.474 37.6039C59.474 37.6039 58.715 38.0411 58.4479 38.0266C58.1817 38.0121 57.8259 37.7973 57.8905 37.6971C57.9552 37.6039 59.0139 36.6002 59.2801 36.3494C58.989 36.5787 57.7208 37.6184 57.5029 37.5894C57.2685 37.5604 56.6948 36.9656 56.6948 36.9656C56.6948 36.9656 56.6302 36.7867 56.3795 36.7508C56.1288 36.7217 56.0883 37.1093 56.0883 37.1093C56.0883 37.1093 56.072 36.6078 56.1934 36.5C56.3063 36.3998 58.5281 34.6508 58.8675 34.6217C59.207 34.5858 59.4086 34.6508 59.6266 34.5713C59.8445 34.4995 62.753 32.2129 62.8908 32.2772C63.0278 32.3345 64.6276 34.0049 64.6439 34.1264C64.6618 34.2494 64.2741 34.7661 63.9666 35.0666ZM65.4208 26.2922C64.4758 26.8227 63.4902 27.461 63.1508 27.6827C63.0698 27.7332 63.0293 27.7615 63.0293 27.7615C62.391 28.2202 61.0582 29.0519 59.8866 29.6108C58.3195 30.3492 56.7197 31.1236 56.7197 31.1236C56.7197 31.1236 56.8816 30.392 56.6792 29.9409C56.4776 29.4968 56.1296 29.8118 56.4527 28.8225C56.7835 27.8402 56.7594 27.5895 56.8326 27.1232C56.905 26.65 57.4382 25.3092 57.4382 25.3092C57.4382 25.3092 58.2222 25.9544 59.9909 26.4276C61.2349 26.7647 62.4634 27.0659 63.0449 27.2662C63.9339 26.6783 65.2986 25.8397 66.1472 25.5959C67.3188 25.2664 67.884 25.1372 68.0132 25.1158C67.8287 25.1883 66.4959 25.6898 65.4208 26.2922ZM74.8577 22.7077C74.8577 22.7077 75.1885 21.6321 75.0593 21.2308C74.9379 20.8218 73.5973 19.9044 72.5627 19.9977C71.5289 20.084 69.9859 20.0191 67.5617 19.9977C65.1383 19.9763 63.3687 20.1766 62.0111 20.5565C60.6456 20.9365 59.9917 22.4631 59.9917 22.4631C59.9917 22.126 60.3389 21.0512 61.1228 20.5994C61.9068 20.1552 62.714 19.8395 63.7486 19.682C64.7825 19.5245 65.7681 19.4596 66.6329 19.0796C67.4893 18.6997 68.0708 18.7861 68.9271 18.7211C69.7835 18.6569 69.5328 18.8786 70.6725 18.9864C71.8037 19.1011 72.1836 18.9221 73.6697 19.7753C75.1644 20.6215 75.3419 20.714 75.4633 21.2308C75.5925 21.7475 74.8577 22.7077 74.8577 22.7077ZM79.5348 17.9405C79.5348 17.9405 79.0825 18.1913 77.9436 18.9366C76.7961 19.682 75.8191 21.324 75.8191 21.324C75.8191 21.324 75.8915 20.8363 75.4797 20.4281C75.0678 20.0267 74.0737 19.5031 74.0737 19.5031C74.0737 19.5031 76.1982 17.0515 76.8451 16.2343C78.4364 14.2344 82.3148 11.159 82.3148 11.159L82.7025 12.055C82.7025 12.055 82.2338 12.6359 81.3697 14.3346C80.5126 16.0408 79.5348 17.9405 79.5348 17.9405ZM100.678 21.1741C94.3759 25.5399 87.6708 27.2676 85.716 25.0453C85.5463 24.8443 85.4248 24.6149 85.3361 24.3711C85.6592 24.1922 86.0064 23.9981 86.3785 23.7901C86.4594 24.0768 86.5801 24.349 86.7825 24.5714C87.0978 24.9299 87.5579 25.1738 88.1238 25.3168C88.0997 24.4353 88.4952 23.3529 89.2386 22.1695C91.1615 21.0802 93.1731 19.9328 94.6842 19.0727C95.3949 18.8579 96.1867 18.5208 96.9947 18.069L98.9822 20.3845C98.7479 20.6712 98.6591 20.9296 98.772 21.0657C98.99 21.324 99.7817 21.123 100.549 20.6215C101.309 20.12 101.761 19.5031 101.543 19.2523C101.43 19.1086 101.139 19.1086 100.775 19.2164L98.7798 16.894C100.703 15.4101 101.729 13.7972 101.131 13.0732C101.066 13.0014 100.977 12.9585 100.889 12.9081C103.902 11.5673 106.625 11.0153 108.337 11.4457C108.321 10.9221 108.16 10.4634 107.837 10.1049C106.035 8.06154 99.8626 9.65311 94.0458 13.6466C90.9272 15.7832 88.5606 18.1775 87.3002 20.256C86.8152 20.5213 86.3388 20.7866 85.8943 21.0304L79.8594 24.8802L87.0659 19.1598C88.5279 17.1882 90.7738 15.0523 93.5857 13.1091C99.8954 8.74335 106.593 7.00877 108.548 9.23795C110.504 11.4671 106.979 16.8076 100.678 21.1741Z" fill="#1E2424"/>
<path d="M75.1115 37.5389C75.0609 37.3821 72.4857 34.6486 72.2583 34.6935C72.031 34.7384 64.1037 40.8989 62.4876 41.638C60.8714 42.3772 59.685 42.2204 59.685 42.2204C59.7605 43.3409 62.4876 44.7963 63.5222 44.9532C64.5576 45.11 66.3496 44.5352 68.2429 43.146C70.1385 41.7583 75.1621 37.6957 75.1115 37.5389Z" fill="#1E2424"/>
<path d="M63.4467 97.6236C40.5156 97.6236 19.8411 89.1302 5.41768 75.5776H0C15.2264 91.203 38.0152 101.137 63.4467 101.137C88.8782 101.137 111.667 91.203 126.893 75.5776H121.486C107.062 89.1302 86.3777 97.6236 63.4467 97.6236Z" fill="#1E2424"/>
<path d="M127 72.9717V75.949H42.4174L39.14 75.0855C34.438 75.5967 20.612 77.0819 20.6821 76.7227C20.6821 76.2944 0.14563 75.8661 0.14563 75.8661V72.9717C0.604937 65.9394 2.5278 59.2457 5.64954 53.1391L5.65731 53.1184C5.68066 53.3947 6.03098 57.0628 6.38908 57.5256C6.49807 57.6638 6.61486 57.8434 6.73941 58.0575C7.05081 58.5825 7.38556 59.3009 7.5724 60.047C7.58797 60.1092 7.61131 60.1713 7.63467 60.2335C7.52568 60.5996 7.44005 60.9588 7.44005 61.1246C7.44005 61.5253 7.18316 61.8431 6.79391 62.1608C6.52144 62.3819 6.2879 62.8861 6.18669 63.1003C6.36575 62.8654 7.05082 62.52 7.30772 62.375C7.60354 62.2092 7.86044 61.8154 7.86044 61.4976C7.86044 61.3733 7.93828 61.1315 8.02391 60.8759C8.67784 61.7394 9.77551 62.6236 9.77551 63.0519C9.77551 63.6322 8.86469 65.7046 9.25393 66.2779C9.64318 66.8513 11.0055 68.9858 11.1379 69.1585C11.2702 69.3312 12.4379 66.5681 13.2164 65.0138C13.9949 63.4595 13.9949 61.6151 14.7033 60.4615C15.4195 59.3147 16.9142 57.1249 17.428 56.6621C17.9496 56.2062 17.1711 56.7796 17.428 57.4703C17.6927 58.1611 17.8873 58.3615 18.1442 59.3424C18.4011 60.3233 18.5646 60.2335 18.8605 60.6342C19.1485 61.0417 18.7592 61.1246 18.697 61.4147C18.6347 61.6842 18.152 62.9207 18.0897 63.0726C18.1754 62.9483 18.9072 61.8292 18.9617 62.0779C19.0239 62.3335 19.2186 63.1694 19.3743 63.9776C19.5377 64.7789 20.5809 67.9496 24.8937 70.4779C26.3682 71.3449 27.9049 72.0426 29.4167 72.6042C32.3018 73.6763 41.1096 76.1217 50.5192 72.3438C54.8094 70.6209 58.0907 68.0049 60.3694 63.5977C60.3694 63.5977 60.2604 65.3246 60.3694 66.0154C60.4706 66.7062 61.5449 67.4868 61.6383 68.6957C61.7395 69.9046 63.5767 72.1496 63.5767 72.1496C63.5767 72.1496 66.4104 66.7131 66.605 64.9447C66.6751 64.3023 66.9242 63.3697 67.2356 62.4026C67.7338 62.6651 68.2009 62.5131 68.6525 62.7687C69.2363 63.0865 69.8202 63.9016 69.9058 64.019C69.8747 63.8878 69.5555 62.8447 69.1351 62.375C68.6836 61.8638 68.5513 61.5598 68.2243 61.3249C68.092 61.2282 67.9207 61.0279 67.7806 60.8276C68.1854 59.7085 68.5746 58.7552 68.7459 58.4167C69.1351 57.643 70.0148 53.6917 70.4041 53.0355C70.7933 52.3792 71.3694 50.4726 71.3694 50.4726C71.3694 50.4726 72.5371 54.0164 73.1288 55.2253C73.7048 56.4342 74.9738 58.2509 75.651 60.5789C76.3361 62.9069 75.5576 64.3852 75.651 64.9447C75.7523 65.5042 75.8145 66.1398 76.4685 64.9447C77.1146 63.7427 76.7877 66.5681 77.4416 67.6042C78.0877 68.6404 79.0608 70.5401 79.1932 71.0582C79.2944 71.4865 80.5944 68.5161 81.2951 66.5473C81.2951 66.5473 81.2951 66.5404 81.3029 66.5473C81.3574 66.4714 81.6454 66.1328 81.8789 66.1605C82.1436 66.1881 82.4317 66.3608 82.6263 66.5059C82.8209 66.6509 83.2102 66.3608 82.9533 66.3056C82.6964 66.2503 82.4005 65.8151 82.0814 65.67C81.949 65.6148 81.8089 65.4628 81.6999 65.3039C82.1359 63.6805 82.5173 61.097 82.891 60.047C83.2802 58.9694 84.0587 56.0335 84.0587 56.0335C84.0587 56.0335 84.5725 54.5897 84.8995 54.7624C85.2264 54.9351 85.1564 56.4342 85.6157 56.897C86.0672 57.3529 87.4296 59.2249 87.4296 59.5842C87.4296 59.9434 87.4296 60.9588 87.4296 60.9588C87.4296 60.9588 87.1727 61.3871 87.4296 61.7878C87.6865 62.1884 87.1727 62.1332 88.208 63.0519C89.2434 63.9776 90.0219 64.4957 90.0219 64.4957C90.0219 64.4957 88.7919 64.1848 88.9243 64.9447C89.0488 65.7046 88.4649 64.2608 89.3758 66.5059C90.2866 68.7509 90.2165 68.4677 90.3489 69.4417C90.4812 70.4227 90.995 70.6506 91.1274 71.1135C91.2597 71.5763 91.5789 71.9217 91.5789 71.9217C91.5789 71.9217 92.8478 68.7026 93.891 66.1674C94.7551 66.2641 95.9073 66.4161 96.5301 66.5404C97.5265 66.7408 98.4919 67.0171 98.6008 67.0447C98.414 66.9134 96.6546 65.7115 96.3354 65.5457C95.9929 65.373 95.2144 65.5871 94.8719 65.5457C94.7006 65.525 94.4593 65.3868 94.2647 65.2625C94.7318 64.1641 95.0976 63.3282 95.2144 63.1694C95.6037 62.6513 96.8726 60.2128 97.2618 60.047C97.6511 59.8881 99.3015 59.5842 99.3015 59.5842C99.3015 59.5842 97.8379 58.6792 97.8379 57.8157C97.8379 56.9522 98.0403 56.1786 98.4296 55.4878C98.8188 54.797 98.9122 54.2098 99.3015 53.0355C99.5895 52.1651 100.399 49.5055 100.812 48.1585C100.882 47.9167 101.271 47.9029 101.364 48.1447C101.956 49.6161 103.217 52.7384 103.583 53.5812C103.887 54.2927 104.237 54.7625 104.525 55.4947C104.525 55.4947 104.214 55.9575 104.12 56.5654C104.019 57.1664 103.194 57.6016 102.953 57.8157C102.711 58.0299 102.369 58.4167 102.369 58.5963C102.369 58.7621 102.509 58.2509 103.1 58.1197C103.677 57.9884 104.377 58.0644 105 57.5049L105.008 57.498C105.226 59.1213 105.179 59.7914 105.724 60.9657C106.308 62.2161 106.502 63.3421 106.697 63.7773C106.892 64.2056 108.456 66.195 109.087 67.5766C109.718 68.9582 110.885 70.25 110.885 70.25C110.885 70.25 110.885 69.0411 111.461 67.4868C112.053 65.9325 112.24 62.0503 113.018 61.5253C113.797 61.0141 114.677 57.2976 114.965 56.1786C115.26 55.0526 117.012 57.9884 117.3 58.8519C117.401 59.149 117.549 59.4875 117.697 59.8052C117.736 59.6394 117.767 59.4805 117.791 59.37C117.876 58.921 118.226 58.5065 118.133 57.947C118.032 57.3805 118.67 57.3805 118.67 57.1664C118.67 56.9522 119.231 56.9315 119.324 56.524C119.418 56.1164 119.542 55.5914 119.542 54.9213C119.542 54.2513 119.449 54.272 119.542 53.8851C119.636 53.4983 119.69 52.9802 120.025 52.0338C120.367 51.0805 120.546 51.3568 120.546 51.3568C124.221 57.9401 126.486 65.2486 127 72.9717Z" fill="#1E2424"/>
<path d="M112.769 13.4324L125.877 24.5886L111.79 14.8713L112.769 13.4324Z" fill="#1E2424"/>
<path d="M86.0352 35.365L98.421 46.7181L84.8208 36.9441L85.3136 35.5619" fill="#1E2424"/>
<path d="M94.7582 28.5372L102.37 35.0162L94.4725 29.3399L94.7582 28.5372Z" fill="#1E2424"/>
<path d="M111.465 16.2286L119.077 22.7076L111.178 17.0313L111.465 16.2286Z" fill="#1E2424"/>
<path d="M57.3534 49.0033L64.9655 55.4822L57.0677 49.806L57.3534 49.0033Z" fill="#1E2424"/>
<path d="M27.5296 57.7175L35.1417 64.1965L27.2432 58.5202L27.5296 57.7175Z" fill="#1E2424"/>
<path d="M74.3603 42.0117L81.9716 48.4906L74.0738 42.8144L74.3603 42.0117Z" fill="#1E2424"/>
</svg>
