<svg width="127" height="104" viewBox="0 0 127 104" fill="none" xmlns="http://www.w3.org/2000/svg">
<path d="M63.577 96.0499C43.4623 96.0499 25.191 88.8617 11.7778 77.1832H8.89551C22.7976 89.95 42.1689 97.8789 63.577 97.8789C84.9852 97.8789 104.367 89.95 118.269 77.1832H115.386C101.963 88.8617 83.6918 96.0499 63.577 96.0499Z" fill="#1E2424"/>
<path d="M63.4465 80.0142L65.7611 84.2074L70.9345 84.88L67.1905 88.1444L68.0747 92.7531L63.4465 90.5769L58.8192 92.7531L59.7035 88.1444L55.9595 84.88L61.1329 84.2074L63.4465 80.0142Z" fill="#1E2424"/>
<path d="M44.1362 80.0142L45.8417 83.0423L49.6538 83.5279L46.8955 85.8856L47.5462 89.2145L44.1362 87.6425L40.7273 89.2145L41.3779 85.8856L38.6196 83.5279L42.4317 83.0423L44.1362 80.0142Z" fill="#1E2424"/>
<path d="M27.9803 80.0142L29.076 81.8778L31.5265 82.1764L29.7534 83.6275L30.1716 85.6759L27.9803 84.7091L25.7881 85.6759L26.2072 83.6275L24.4331 82.1764L26.8837 81.8778L27.9803 80.0142Z" fill="#1E2424"/>
<path d="M83.1504 80.0142L81.5677 83.0423L78.0278 83.5279L80.5891 85.8856L79.985 89.2145L83.1504 87.6425L86.3168 89.2145L85.7126 85.8856L88.2739 83.5279L84.734 83.0423L83.1504 80.0142Z" fill="#1E2424"/>
<path d="M99.3074 80.0142L98.0901 81.8778L95.3672 82.1764L97.3373 83.6275L96.8716 85.6759L99.3074 84.7091L101.743 85.6759L101.278 83.6275L103.249 82.1764L100.525 81.8778L99.3074 80.0142Z" fill="#1E2424"/>
<path d="M112.82 8.35786C112.19 7.62325 111.349 7.0875 110.347 6.73506C110.558 6.85962 111.988 7.70463 112.351 8.79876C112.222 8.62254 111.584 7.85113 109.904 7.16818C106.947 5.96364 103.36 6.57299 101.905 6.98488C100.25 7.44773 98.5284 8.11582 96.7994 8.98277C98.0356 7.62395 98.9083 6.52982 98.9083 6.52982C98.9083 6.52982 99.918 3.90063 98.9083 3.22475C97.8986 2.55667 95.8138 2.79871 95.8138 2.79871C95.8138 2.79871 85.6507 8.54964 82.1444 10.9361C78.6458 13.3232 75.4143 17.4874 75.4143 17.4874C75.4143 17.4874 74.477 17.37 74.3805 16.7309C74.2754 16.0847 73.6939 15.5115 73.1202 14.9828C72.5386 14.4612 72.8376 14.1159 71.7305 13.9545C71.2456 13.8887 70.8415 13.8519 70.5426 13.8441C70.6477 14.3069 70.7605 14.7839 70.8337 15.1003C71.0354 15.9304 71.2782 16.7528 70.8337 17.3034C70.4219 17.8172 68.717 18.5009 68.5068 18.5816C68.6843 18.457 69.961 17.6339 70.3324 17.1789C70.7364 16.6941 70.5426 16.2022 70.179 15.1003C69.8318 14.072 69.8637 12.9998 69.8723 12.8604C69.8723 12.8533 69.8723 12.8455 69.8723 12.8455C69.7267 12.1109 69.3227 11.0904 68.2484 10.1866C66.4384 8.66642 65.4769 8.16677 63.9667 9.51851C64.0235 9.98136 64.0554 10.6424 63.9021 10.8405C63.7005 11.1052 63.1181 11.854 62.9002 12.1257C63.0862 11.8391 63.5946 11.0536 63.6273 10.8335C63.6678 10.5546 63.6273 9.84194 63.6273 9.84194C63.6273 9.84194 63.2232 8.46826 63.1181 8.10095C63.0854 7.9764 63.0535 7.69685 63.0294 7.36634L62.957 7.61617C62.3832 8.36564 60.6869 9.68767 60.2665 9.7457C59.8462 9.80444 58.5297 9.34938 57.8268 9.54754C57.116 9.7457 56.009 10.5093 56.009 10.5093C54.7969 10.3699 53.4641 9.7011 53.2781 9.5178C53.092 9.3345 53.2781 7.43215 53.2781 7.43215C57.9233 5.59633 62.1489 6.15401 62.9321 6.13207C62.9321 5.96292 62.9889 5.62535 62.9967 5.50787C63.0208 4.86172 62.4876 4.2007 62.4876 4.2007C62.4876 4.2007 62.9967 3.75979 61.1704 2.22475C59.3604 0.682628 57.4624 0.315319 54.2309 1.2849C54.2309 1.2849 52.0574 1.97564 51.5086 4.17878C50.9512 6.38191 51.5327 9.06273 51.7102 9.84123C51.8799 10.6268 52.7604 10.7592 52.7526 11.222C52.7448 11.6771 52.8172 11.9785 52.9464 12.2064C53.0679 12.4343 53.7545 13.2638 54.2309 13.4258C54.4972 13.5143 54.6996 13.5285 54.8366 13.5433C54.8693 13.5504 54.8934 13.5582 54.9176 13.5582C54.9176 13.5653 54.9254 13.5653 54.9254 13.5653C54.9658 13.5723 54.9978 13.5872 55.0305 13.6091C55.2165 13.6898 55.612 13.8151 56.4278 13.9835C57.7769 14.2553 58.6333 14.8866 58.6333 14.8866C58.6333 14.8866 58.0595 14.6367 56.7587 14.4386C56.2176 14.3579 55.4664 14.2553 54.7634 14.1668C54.5696 14.3869 54.287 14.6955 53.9554 15.0996C53.2205 15.9956 51.7335 17.8314 51.451 18.6325C51.2408 19.2567 51.2493 20.52 51.2649 21.0565C51.4665 20.8803 51.7172 20.7111 52.0161 20.6085C52.9939 20.2709 52.6864 20.6672 54.5042 20.3954C56.3219 20.1166 57.6065 19.6021 58.5438 19.2348C59.4888 18.8675 61.5573 18.1329 62.1715 17.6997C62.7857 17.2737 63.5611 16.7818 63.7954 16.2603C64.0375 15.7387 63.8523 13.4471 63.8523 13.4471C63.8523 13.4471 64.3046 15.1286 64.1995 15.9885C64.1021 16.8406 63.9978 16.5688 63.0605 17.5455C62.1155 18.5299 60.8387 18.7719 59.0856 19.5356C57.3324 20.2992 56.3227 20.4832 55.313 20.8208C54.3033 21.1584 53.4953 21.0996 52.558 21.0041C51.7258 20.9234 50.8212 21.7168 50.611 21.9072C50.6032 21.922 50.5946 21.9291 50.5791 21.9369C50.5791 21.9439 50.5791 21.944 50.5791 21.944C50.5713 21.944 50.5713 21.951 50.5713 21.951C50.4179 22.1273 50.2887 22.3183 50.2404 22.5094C50.0948 23.0827 50.4179 23.3615 50.442 23.8902C50.4747 24.4188 50.5954 24.9921 50.7246 25.5427C50.8461 26.0933 49.1575 31.8294 49.1575 31.8294C49.1575 31.8294 48.3495 31.668 47.469 32.0127C46.58 32.358 46.0311 33.6433 45.5944 34.4437C45.1826 35.2293 45.1421 35.8096 45.1662 35.9051C45.118 35.8761 44.851 35.9349 43.7042 37.0071C42.1208 38.4904 41.4824 39.012 41.4015 39.431C41.3127 39.8422 41.2481 40.4076 41.2481 40.4076C41.2481 40.4076 42.2259 39.6582 42.4275 39.7764C42.6291 39.9009 42.3388 41.833 42.3388 41.833C42.3388 41.833 40.6261 41.8769 38.5904 42.0163C36.5546 42.1486 33.299 42.0014 29.6634 43.3312C26.0279 44.6603 22.2468 48.7885 21.9401 49.9413C21.6411 51.0871 23.4107 51.8656 24.0085 51.9173C24.6228 51.9612 27.7492 51.3589 29.8737 50.4481C31.9904 49.5224 33.5575 48.9279 36.3367 48.6561C39.1081 48.3773 42.2423 48.7 42.2423 48.7L41.3454 51.7482C40.7234 51.6965 40.1014 51.6597 39.463 51.6455C29.2836 51.3808 20.8813 56.2429 20.6875 62.5005C20.4937 68.7653 28.5806 74.0463 38.7601 74.3103C48.931 74.5672 57.3332 69.7051 57.5356 63.4475C57.5675 62.4121 57.3737 61.3986 56.9704 60.4361C57.0514 63.3887 55.7264 65.5041 55.7264 65.5041C57.0273 62.853 56.3562 60.3406 55.3948 58.6222C53.9406 56.015 51.3957 54.6342 50.0139 53.9881C48.4063 53.2386 46.5963 52.6441 44.6415 52.24L45.926 48.7C45.926 48.7 47.9454 48.7439 51.282 50.3087C54.6108 51.8657 56.0728 52.6512 57.0825 52.8281C58.0922 53.0192 58.3997 52.9675 58.7469 52.0935C58.7469 52.0864 58.7547 52.0787 58.7547 52.0638C59.2156 50.9109 58.8435 49.6179 57.9552 48.6929C57.7045 48.4212 57.3978 48.1346 57.0343 47.8408C55.1114 46.2839 51.718 44.6901 51.718 44.6901C51.718 44.6901 51.6456 43.8309 52.6226 43.8309C53.6004 43.8309 56.6622 44.4183 57.7046 44.9031C58.7547 45.395 57.6072 46.4381 58.5126 47.6278C59.4258 48.8253 61.0816 49.7651 61.0816 49.7651C61.421 49.9633 62.2533 50.3306 63.2949 49.9413C64.6603 49.4346 64.1029 48.4212 65.5167 47.7821C65.7915 47.6646 66.0818 47.5174 66.3893 47.356C65.5976 47.6568 64.8542 47.8111 64.1675 47.8111C62.6565 47.8111 60.8387 46.2173 59.7239 45.2697C58.6169 44.322 57.2359 42.8826 57.0981 42.0014C56.9689 41.1125 57.5341 40.3418 57.9062 40.4961C57.9062 40.4961 58.6496 40.988 60.2977 40.6794C61.9457 40.3786 69.5235 34.099 70.0249 33.7317C70.534 33.3644 73.0548 30.9185 73.5631 30.9851C74.0637 31.0438 79.7513 37.3453 79.8245 37.5952C79.8245 37.8521 73.4339 42.7438 70.5013 44.9031C71.1638 44.9102 72.6585 44.8592 73.7974 44.3376C75.3085 43.6476 77.1823 41.6348 77.1823 41.6348C77.1823 41.6348 77.1823 43.2357 78.0869 43.603C79 43.9703 80.7688 43.603 82.3849 42.7361C84.0011 41.862 84.5981 39.9229 85.762 38.8945C86.925 37.8662 88.6945 36.2137 88.7428 35.2519C88.7833 34.5102 88.4034 33.438 87.6685 32.9674C86.1902 33.5548 83.8064 34.5612 83.3386 35.0898C82.6597 35.8683 82.757 36.8082 82.0541 37.2272C81.3433 37.6384 79.4041 38.5563 79.4041 38.5563C79.4041 38.5563 81.4235 37.1097 81.5208 36.8301C81.6259 36.5584 82.2316 36.3305 82.3849 35.7063C82.5305 35.0891 82.5305 34.7218 83.0396 34.443C83.5402 34.1712 86.5459 32.7685 86.5459 32.7685L86.9258 32.7247L88.3964 31.961C82.6605 31.1309 82.9353 27.5399 82.9353 27.5399C84.6558 31.3955 89.649 31.1096 89.649 31.1096C93.8419 31.0948 99.2874 29.1854 104.28 25.6453C112.303 19.9553 116.132 12.2142 112.82 8.35786ZM52.8585 9.37201C52.8585 9.37201 52.2847 9.2616 51.897 9.06344C51.897 9.06344 51.6791 7.95444 51.6059 7.0068C51.6059 7.0068 52.2847 7.37412 52.8585 7.44773C52.8585 7.44773 52.7697 8.97498 52.8585 9.37201ZM51.7195 5.16321C51.841 3.31252 53.1815 2.1738 53.1815 2.1738C52.8421 3.04076 53.5692 4.05422 54.2722 3.94381C54.983 3.84119 57.3581 2.50431 57.8268 2.44557C58.2954 2.38683 60.2665 2.58498 60.2665 2.58498C59.9435 1.97563 59.3215 1.45405 59.3215 1.45405C60.7033 2.00466 62.0197 3.81146 62.0197 3.81146L61.4296 3.37834C61.4296 3.37834 58.311 3.02589 57.9638 3.19504C57.608 3.36418 54.6591 5.0167 53.8674 5.15612C53.0764 5.29555 51.7195 5.16321 51.7195 5.16321ZM66.4392 9.29063C67.1336 9.5992 68.4671 10.6346 68.879 11.2666C69.2908 11.8986 69.3071 13.0217 69.2993 13.4555C69.283 13.8667 69.606 15.2185 69.6387 15.3799C69.5741 15.2404 69.0572 14.0946 68.7661 13.3968C68.4593 12.6551 68.4103 11.8986 68.4103 11.8986C68.4103 11.8986 67.74 13.0515 66.8269 13.3968C66.8269 13.3968 67.8934 12.0967 67.8451 11.1349C67.8451 11.1349 67.5384 10.4301 66.9405 10.1654C66.9405 10.1654 66.981 11.4506 66.0273 12.0748C66.0273 12.0748 66.6571 10.2751 66.2453 9.8936C65.8249 9.51922 65.2029 9.26232 65.2029 9.26232C65.2029 9.26232 65.7362 8.98277 66.4392 9.29063ZM59.9925 23.2454C60.1295 25.1181 63.2886 25.7869 63.6849 25.8598C63.3859 25.823 61.7215 25.6029 60.8489 25.0813C59.8874 24.5087 59.9925 23.2454 59.9925 23.2454ZM54.6443 25.4854C55.5894 24.6772 55.6867 23.8845 55.9934 23.6347C56.2597 23.4146 58.3849 22.5915 58.789 22.445C58.4978 22.6142 57.2297 23.319 56.4621 24.1266C55.5894 25.0445 55.0725 26.4401 52.8593 26.3297C52.8593 26.3297 53.6985 26.2936 54.6443 25.4854ZM55.8479 30.1125C56.0985 30.5017 56.0098 31.9709 56.0098 31.9709L55.1776 32.3085C55.2181 32.191 55.6135 31.0891 55.4687 30.5675C55.3232 30.0169 55.0647 29.7671 55.3963 29.2603C55.728 28.7536 56.2363 28.3644 56.3251 27.6814C56.3251 27.6814 56.4784 28.2986 56.0261 28.7834C55.5731 29.2604 55.5972 29.7232 55.8479 30.1125ZM50.6694 32.1762C50.92 31.5668 51.8729 27.6737 52.059 26.8952C52.0021 27.174 51.9056 27.8718 52.0909 28.8414C52.3252 30.1266 52.1882 30.2151 52.0909 30.9858C51.9858 31.7494 51.4611 33.7324 51.4611 33.7324L50.2334 33.9823C50.2334 33.9823 50.4023 32.852 50.6694 32.1762ZM33.9778 43.3178C30.5844 43.5598 25.4542 45.8146 22.2227 49.9569C22.4087 49.6193 24.0241 46.8429 27.0135 45.051C30.2045 43.1416 32.8708 42.7375 33.8323 42.62C33.8323 42.62 36.8372 42.4367 38.7842 42.3192C40.7234 42.2088 42.4197 42.3192 42.4197 42.3192L43.8335 42.8698L43.5026 44.0156C43.5026 44.0156 37.379 43.068 33.9778 43.3178ZM53.3435 61.6428C53.2064 66.2918 46.6135 69.8906 38.6316 69.6853C30.6576 69.4794 24.2997 65.543 24.4452 60.9011C24.5908 56.2592 31.1753 52.6604 39.1571 52.8664C39.7791 52.8812 40.3848 52.9251 40.9827 52.9909L40.7647 53.7326C40.2314 53.6809 39.6904 53.6441 39.133 53.63C31.6112 53.4389 25.4067 56.7072 25.2697 60.9301C25.2533 61.3491 25.3024 61.7603 25.4067 62.1566C26.3603 58.4036 32.185 55.6272 39.133 55.8034C39.4724 55.8105 39.8032 55.8331 40.1427 55.855L39.3432 58.5727C36.483 58.7121 34.2371 60.0419 34.2371 61.6718C34.2371 63.3902 36.7414 64.7787 39.8274 64.7787C42.9133 64.7787 45.4177 63.3909 45.4177 61.6718C45.4177 60.4305 44.1168 59.3653 42.2345 58.8664L43.1795 56.2663C48.0186 57.2429 51.6464 59.6668 52.3813 62.5749C52.4622 62.2663 52.5105 61.9506 52.5183 61.6272C52.6234 58.3519 49.0361 55.4651 43.9059 54.2457L44.1721 53.526C49.627 54.8635 53.4563 58.0292 53.3435 61.6428ZM44.4158 60.7978C44.4321 60.8862 44.4399 60.974 44.4399 61.0625C44.4399 62.4652 42.3559 63.611 39.7861 63.611C37.2249 63.611 35.1409 62.4652 35.1409 61.0625C35.1409 60.974 35.1487 60.8862 35.165 60.7978C35.3994 62.083 37.3868 63.0816 39.7861 63.0816C42.1948 63.0823 44.1815 62.083 44.4158 60.7978ZM53.1333 39.8585C53.1333 39.8585 52.7939 39.5938 52.2847 39.322C51.7842 39.0432 50.7418 38.5584 50.7418 38.5584C50.7418 38.5584 50.3377 38.3751 50.3058 38.3086C50.2653 38.2498 51.2104 37.7721 51.1621 37.4713C51.1139 37.1628 51.1785 36.5973 51.1785 36.5973C51.1785 36.5973 51.8332 36.891 52.7619 37.3319C53.6183 37.736 54.329 38.3751 54.329 38.3751L53.1333 39.8585ZM50.734 35.4664C50.1042 36.0615 50.3058 37.4565 50.3058 37.4565L48.0677 38.2788C48.0677 38.2788 46.3955 38.0955 44.4804 38.4331C42.679 38.7488 42.5256 38.8521 42.4205 38.896L44.1815 37.2286C44.1815 37.2286 45.1834 36.23 46.9038 35.5541C48.6165 34.886 50.305 34.4083 51.9204 34.012C53.5365 33.6157 56.6785 32.1026 56.6785 32.1026L57.0662 32.6978C57.0662 32.6978 56.0238 33.9978 55.0468 34.167C54.0706 34.3354 51.3638 34.8719 50.734 35.4664ZM63.9667 35.6794C63.6677 35.9879 63.4817 36.1422 63.094 36.3553C62.7063 36.5683 61.4296 37.5301 60.8239 37.7431C60.2183 37.9632 59.9108 37.8238 59.9108 37.8238C59.9108 37.8238 59.8462 38.4041 60.1692 39.0283C60.4604 39.6086 60.581 39.6306 60.6052 39.6306C60.6052 39.6306 59.692 40.5782 59.474 40.5117C59.2561 40.4529 58.8193 40.1812 58.8193 39.8875C58.8193 39.5938 59.1502 38.9398 59.3043 38.7856C59.4577 38.6313 59.474 38.2788 59.474 38.2788C59.474 38.2788 58.715 38.7268 58.448 38.712C58.1818 38.6971 57.826 38.477 57.8906 38.3744C57.9552 38.2788 59.014 37.2505 59.2802 36.9936C58.989 37.2286 57.7209 38.2937 57.5029 38.264C57.2686 38.2342 56.6949 37.6249 56.6949 37.6249C56.6949 37.6249 56.6302 37.4416 56.3796 37.4048C56.1289 37.3751 56.0884 37.7721 56.0884 37.7721C56.0884 37.7721 56.0721 37.2583 56.1935 37.1479C56.3064 37.0453 58.5282 35.2533 58.8676 35.2236C59.207 35.1868 59.4087 35.2533 59.6266 35.172C59.8446 35.0984 62.753 32.7558 62.8908 32.8216C63.0278 32.8803 64.6276 34.5916 64.644 34.7162C64.6619 34.8421 64.2742 35.3715 63.9667 35.6794ZM65.4209 26.6899C64.4758 27.2334 63.4903 27.8874 63.1508 28.1146C63.0699 28.1662 63.0294 28.1952 63.0294 28.1952C62.391 28.6652 61.0583 29.5173 59.8866 30.0898C58.3195 30.8464 56.7198 31.6397 56.7198 31.6397C56.7198 31.6397 56.8817 30.8902 56.6793 30.4281C56.4776 29.973 56.1297 30.2957 56.4527 29.2823C56.7836 28.2759 56.7595 28.019 56.8326 27.5413C56.9051 27.0565 57.4383 25.6828 57.4383 25.6828C57.4383 25.6828 58.2222 26.3439 59.991 26.8286C61.235 27.174 62.4634 27.4826 63.045 27.6878C63.934 27.0855 65.2987 26.2264 66.1472 25.9765C67.3189 25.639 67.884 25.5066 68.0133 25.4847C67.8288 25.559 66.496 26.0728 65.4209 26.6899ZM74.8577 23.0176C74.8577 23.0176 75.1886 21.9156 75.0594 21.5045C74.9379 21.0855 73.5974 20.1456 72.5628 20.2412C71.5289 20.3296 69.986 20.2631 67.5617 20.2412C65.1383 20.2192 63.3688 20.4245 62.0111 20.8137C60.6457 21.203 59.9917 22.767 59.9917 22.767C59.9917 22.4217 60.3389 21.3204 61.1229 20.8576C61.9068 20.4025 62.7141 20.0791 63.7487 19.9177C64.7825 19.7564 65.7681 19.6899 66.633 19.3006C67.4893 18.9114 68.0709 18.9998 68.9272 18.9333C69.7835 18.8675 69.5329 19.0947 70.6726 19.2051C71.8037 19.3226 72.1836 19.1393 73.6698 20.0133C75.1645 20.8803 75.3419 20.9751 75.4634 21.5045C75.5926 22.0338 74.8577 23.0176 74.8577 23.0176ZM79.5349 18.1336C79.5349 18.1336 79.0826 18.3905 77.9436 19.1541C76.7962 19.9177 75.8191 21.6 75.8191 21.6C75.8191 21.6 75.8915 21.1004 75.4797 20.6821C75.0679 20.2709 74.0738 19.7344 74.0738 19.7344C74.0738 19.7344 76.1983 17.2227 76.8452 16.3855C78.4364 14.3367 82.3148 11.1859 82.3148 11.1859L82.7025 12.1038C82.7025 12.1038 82.2339 12.699 81.3698 14.4393C80.5126 16.1874 79.5349 18.1336 79.5349 18.1336ZM100.678 21.4464C94.3759 25.9192 87.6708 27.6892 85.7161 25.4125C85.5463 25.2065 85.4249 24.9716 85.3362 24.7217C85.6592 24.5384 86.0064 24.3396 86.3785 24.1266C86.4595 24.4203 86.5802 24.6991 86.7826 24.927C87.0979 25.2943 87.558 25.5441 88.1239 25.6906C88.0998 24.7876 88.4953 23.6786 89.2387 22.4663C91.1616 21.3502 93.1732 20.1747 94.6842 19.2935C95.395 19.0734 96.1867 18.7281 96.9948 18.2652L98.9822 20.6375C98.7479 20.9312 98.6592 21.1959 98.7721 21.3353C98.99 21.6 99.7817 21.3941 100.549 20.8803C101.309 20.3665 101.761 19.7344 101.543 19.4775C101.43 19.3303 101.139 19.3303 100.775 19.4407L98.7799 17.0614C100.703 15.5412 101.729 13.8887 101.131 13.147C101.066 13.0734 100.978 13.0295 100.889 12.9778C103.902 11.6042 106.625 11.0387 108.337 11.4796C108.321 10.9431 108.16 10.4732 107.837 10.1059C106.035 8.0125 99.8627 9.64307 94.0459 13.7344C90.9272 15.9234 88.5607 18.3763 87.3003 20.5059C86.8153 20.7776 86.3389 21.0494 85.8943 21.2992L79.8595 25.2433L87.066 19.3827C88.528 17.3629 90.7739 15.1746 93.5858 13.1838C99.8954 8.71101 106.593 6.93393 108.548 9.21774C110.504 11.5016 106.979 16.9729 100.678 21.4464Z" fill="#1E2424"/>
<path d="M75.1116 38.2123C75.061 38.0516 72.4857 35.2512 72.2584 35.2972C72.0311 35.3432 64.1038 41.6546 62.4876 42.4119C60.8715 43.1691 59.6851 43.0085 59.6851 43.0085C59.7606 44.1564 62.4876 45.6476 63.5222 45.8082C64.5576 45.9689 66.3497 45.3801 68.243 43.9568C70.1386 42.535 75.1622 38.3729 75.1116 38.2123Z" fill="#1E2424"/>
<path d="M63.4467 99.7695C40.5156 99.7695 19.8411 91.0679 5.41768 77.1832H0C15.2264 93.1916 38.0152 103.369 63.4467 103.369C88.8782 103.369 111.667 93.1916 126.893 77.1832H121.486C107.062 91.0679 86.3777 99.7695 63.4467 99.7695Z" fill="#1E2424"/>
<path d="M127 74.5134V77.5636H42.4173L39.1399 76.679C34.4378 77.2027 20.6119 78.7243 20.682 78.3563C20.682 77.9175 0.145508 77.4787 0.145508 77.4787V74.5134C0.604815 67.3088 2.52768 60.451 5.64941 54.1947L5.65718 54.1735C5.68054 54.4566 6.03086 58.2146 6.38896 58.6887C6.49795 58.8303 6.61473 59.0143 6.73929 59.2337C7.05069 59.7716 7.38544 60.5076 7.57228 61.2719C7.58785 61.3356 7.61119 61.3993 7.63455 61.463C7.52556 61.8381 7.43992 62.2061 7.43992 62.376C7.43992 62.7864 7.18303 63.112 6.79379 63.4375C6.52132 63.664 6.28778 64.1806 6.18657 64.4C6.36562 64.1594 7.05069 63.8056 7.30759 63.6569C7.60342 63.4871 7.86031 63.0837 7.86031 62.7581C7.86031 62.6307 7.93816 62.383 8.02379 62.1212C8.67772 63.0058 9.77538 63.9117 9.77538 64.3505C9.77538 64.945 8.86457 67.0681 9.25381 67.6556C9.64305 68.243 11.0054 70.4298 11.1377 70.6068C11.2701 70.7837 12.4378 67.9528 13.2163 66.3604C13.9948 64.7681 13.9948 62.8784 14.7032 61.6965C15.4194 60.5217 16.9141 58.2783 17.4279 57.8041C17.9495 57.337 17.171 57.9244 17.4279 58.6321C17.6926 59.3398 17.8872 59.5451 18.1441 60.55C18.401 61.555 18.5645 61.463 18.8603 61.8735C19.1484 62.291 18.7591 62.376 18.6968 62.6732C18.6346 62.9492 18.1519 64.216 18.0896 64.3717C18.1752 64.2443 18.907 63.0978 18.9615 63.3526C19.0238 63.6145 19.2184 64.4708 19.3741 65.2989C19.5376 66.1198 20.5808 69.3682 24.8936 71.9585C26.3681 72.8467 27.9048 73.5615 29.4166 74.1368C32.3017 75.2352 41.1095 77.7406 50.519 73.87C54.8093 72.105 58.0906 69.4248 60.3692 64.9096C60.3692 64.9096 60.2603 66.6789 60.3692 67.3866C60.4705 68.0943 61.5447 68.8941 61.6382 70.1326C61.7394 71.3711 63.5766 73.6712 63.5766 73.6712C63.5766 73.6712 66.4103 68.1014 66.6049 66.2897C66.675 65.6315 66.9241 64.6761 67.2355 63.6853C67.7337 63.9542 68.2008 63.7985 68.6523 64.0603C69.2362 64.3859 69.8201 65.221 69.9057 65.3413C69.8746 65.2068 69.5554 64.1382 69.135 63.6569C68.6835 63.1332 68.5511 62.8218 68.2242 62.5812C68.0918 62.4821 67.9206 62.2769 67.7804 62.0716C68.1852 60.9251 68.5745 59.9485 68.7458 59.6017C69.135 58.809 70.0147 54.7609 70.4039 54.0885C70.7932 53.4162 71.3692 51.4629 71.3692 51.4629C71.3692 51.4629 72.537 55.0935 73.1286 56.332C73.7047 57.5705 74.9736 59.4318 75.6509 61.8169C76.336 64.2019 75.5575 65.7164 75.6509 66.2897C75.7521 66.8629 75.8144 67.514 76.4683 66.2897C77.1145 65.0582 76.7875 67.9528 77.4415 69.0144C78.0876 70.076 79.0607 72.0222 79.1931 72.553C79.2943 72.9918 80.5943 69.9486 81.295 67.9316C81.295 67.9316 81.295 67.9245 81.3027 67.9316C81.3572 67.8537 81.6453 67.5069 81.8788 67.5352C82.1435 67.5635 82.4316 67.7405 82.6262 67.8891C82.8208 68.0377 83.21 67.7405 82.9531 67.6839C82.6962 67.6272 82.4004 67.1814 82.0812 67.0328C81.9489 66.9761 81.8088 66.8204 81.6998 66.6577C82.1357 64.9945 82.5172 62.3477 82.8909 61.2719C83.2801 60.1679 84.0586 57.1601 84.0586 57.1601C84.0586 57.1601 84.5724 55.6809 84.8993 55.8578C85.2263 56.0348 85.1563 57.5706 85.6156 58.0447C86.0671 58.5118 87.4294 60.4297 87.4294 60.7977C87.4294 61.1658 87.4294 62.2061 87.4294 62.2061C87.4294 62.2061 87.1725 62.6449 87.4294 63.0554C87.6863 63.4658 87.1725 63.4092 88.2079 64.3505C89.2433 65.2988 90.0218 65.8296 90.0218 65.8296C90.0218 65.8296 88.7918 65.5112 88.9241 66.2897C89.0487 67.0681 88.4648 65.589 89.3756 67.8891C90.2865 70.1892 90.2164 69.899 90.3488 70.8969C90.4811 71.9019 90.9949 72.1354 91.1272 72.6096C91.2596 73.0838 91.5788 73.4376 91.5788 73.4376C91.5788 73.4376 92.8477 70.1396 93.8909 67.5423C94.755 67.6414 95.9072 67.7971 96.5299 67.9245C97.5264 68.1297 98.4917 68.4128 98.6007 68.4411C98.4139 68.3066 96.6545 67.0752 96.3353 66.9054C95.9928 66.7284 95.2143 66.9478 94.8718 66.9054C94.7005 66.8841 94.4592 66.7426 94.2645 66.6152C94.7316 65.4899 95.0975 64.6336 95.2143 64.4708C95.6035 63.94 96.8725 61.4418 97.2617 61.2719C97.651 61.1091 99.3014 60.7977 99.3014 60.7977C99.3014 60.7977 97.8378 59.8706 97.8378 58.986C97.8378 58.1013 98.0402 57.3087 98.4295 56.601C98.8187 55.8932 98.9121 55.2917 99.3014 54.0885C99.5894 53.1968 100.399 50.4721 100.812 49.092C100.882 48.8443 101.271 48.8302 101.364 49.0779C101.956 50.5853 103.217 53.7842 103.583 54.6477C103.887 55.3766 104.237 55.8579 104.525 56.6081C104.525 56.6081 104.214 57.0822 104.12 57.705C104.019 58.3207 103.194 58.7666 102.952 58.986C102.711 59.2054 102.369 59.6017 102.369 59.7857C102.369 59.9556 102.509 59.4318 103.1 59.2974C103.676 59.1629 104.377 59.2408 105 58.6675L105.008 58.6604C105.226 60.3236 105.179 61.0101 105.724 62.2132C106.308 63.4942 106.502 64.6477 106.697 65.0936C106.892 65.5324 108.456 67.5706 109.087 68.9861C109.718 70.4015 110.885 71.7249 110.885 71.7249C110.885 71.7249 110.885 70.4864 111.461 68.8941C112.053 67.3017 112.24 63.3243 113.018 62.7864C113.797 62.2627 114.676 58.4552 114.965 57.3087C115.26 56.1551 117.012 59.1629 117.3 60.0476C117.401 60.3519 117.549 60.6987 117.697 61.0242C117.736 60.8544 117.767 60.6916 117.79 60.5784C117.876 60.1183 118.226 59.6937 118.133 59.1204C118.032 58.5401 118.67 58.5401 118.67 58.3207C118.67 58.1013 119.231 58.0801 119.324 57.6625C119.417 57.245 119.542 56.7071 119.542 56.0206C119.542 55.3341 119.449 55.3554 119.542 54.9591C119.635 54.5627 119.69 54.0319 120.025 53.0624C120.367 52.0857 120.546 52.3688 120.546 52.3688C124.221 59.1134 126.486 66.601 127 74.5134Z" fill="#1E2424"/>
<path d="M112.769 13.515L125.877 24.9447L111.79 14.9892L112.769 13.515Z" fill="#1E2424"/>
<path d="M86.0352 35.9851L98.421 47.6165L84.8208 37.603L85.3136 36.1868" fill="#1E2424"/>
<path d="M94.7584 28.99L102.37 35.6277L94.4727 29.8124L94.7584 28.99Z" fill="#1E2424"/>
<path d="M111.465 16.3799L119.077 23.0176L111.178 17.2022L111.465 16.3799Z" fill="#1E2424"/>
<path d="M57.3536 49.9576L64.9656 56.5953L57.0679 50.78L57.3536 49.9576Z" fill="#1E2424"/>
<path d="M27.5296 58.8855L35.1417 65.5232L27.2432 59.7079L27.5296 58.8855Z" fill="#1E2424"/>
<path d="M74.3602 42.7948L81.9715 49.4325L74.0737 43.6172L74.3602 42.7948Z" fill="#1E2424"/>
</svg>
