<svg width="381" height="310" viewBox="0 0 381 310" fill="none" xmlns="http://www.w3.org/2000/svg">
<path d="M190.347 294.488C150.533 294.488 114.369 280.428 87.8195 257.585H82.1146C109.631 282.557 147.973 298.065 190.347 298.065C232.72 298.065 271.083 282.557 298.599 257.585H292.894C266.325 280.428 230.16 294.488 190.347 294.488Z" fill="#FCA311"/>
<path d="M0 191.4L43.6011 257.585H337.399L381 191.4H0ZM368.926 196.491L335.075 247.878H45.9234L12.072 196.491H368.926ZM48.966 252.494L47.6016 250.423H333.398L332.034 252.494H48.966Z" fill="#FCA311"/>
<path d="M358.825 202.133H22.1746L42.8411 225.387L30.659 204.555H350.343L338.161 225.387L358.825 202.133Z" fill="#FCA311"/>
<path d="M190.357 259.39L195.048 267.821L205.532 269.173L197.945 275.736L199.737 285.002L190.357 280.626L180.979 285.002L182.771 275.736L175.183 269.173L185.668 267.821L190.357 259.39Z" fill="#FCA311"/>
<path d="M151.047 259.39L154.424 265.458L161.971 266.431L156.51 271.155L157.798 277.825L151.047 274.675L144.298 277.825L145.586 271.155L140.125 266.431L147.673 265.458L151.047 259.39Z" fill="#FCA311"/>
<path d="M119.467 259.39L121.664 263.341L126.579 263.975L123.023 267.051L123.861 271.395L119.467 269.345L115.07 271.395L115.911 267.051L112.353 263.975L117.267 263.341L119.467 259.39Z" fill="#FCA311"/>
<path d="M229.666 259.39L226.292 265.458L218.744 266.431L224.205 271.155L222.917 277.825L229.666 274.675L236.418 277.825L235.129 271.155L240.59 266.431L233.043 265.458L229.666 259.39Z" fill="#FCA311"/>
<path d="M261.249 259.39L259.052 263.341L254.137 263.975L257.693 267.051L256.852 271.395L261.249 269.345L265.646 271.395L264.805 267.051L268.363 263.975L263.446 263.341L261.249 259.39Z" fill="#FCA311"/>
<path d="M318.351 19.2304C316.72 17.3736 314.543 16.0195 311.948 15.1287C312.493 15.4435 316.196 17.5793 317.137 20.3448C316.802 19.8993 315.149 17.9496 310.799 16.2234C303.143 13.1789 293.854 14.719 290.088 15.7601C285.8 16.93 281.343 18.6186 276.866 20.8099C280.067 17.3754 282.327 14.6099 282.327 14.6099C282.327 14.6099 284.942 7.96455 282.327 6.25626C279.712 4.56765 274.314 5.17943 274.314 5.17943C274.314 5.17943 247.997 19.7151 238.917 25.7469C229.858 31.7804 221.49 42.3057 221.49 42.3057C221.49 42.3057 219.063 42.0088 218.813 40.3935C218.541 38.7603 217.035 37.3114 215.549 35.9752C214.043 34.6568 214.817 33.7839 211.951 33.3761C210.695 33.2097 209.649 33.1167 208.875 33.097C209.147 34.2669 209.439 35.4725 209.629 36.2721C210.151 38.3703 210.78 40.4489 209.629 41.8406C208.562 43.1392 204.147 44.8672 203.603 45.0711C204.063 44.7563 207.369 42.676 208.33 41.5258C209.377 40.3005 208.875 39.0572 207.933 36.2721C207.034 33.673 207.117 30.963 207.139 30.6106C207.139 30.5927 207.139 30.573 207.139 30.573C206.762 28.7162 205.716 26.1368 202.934 23.8526C198.247 20.0102 195.757 18.7474 191.847 22.1639C191.994 23.3338 192.076 25.0046 191.679 25.5054C191.157 26.1744 189.649 28.0669 189.085 28.7538C189.567 28.0294 190.883 26.0438 190.968 25.4875C191.072 24.7827 190.968 22.9814 190.968 22.9814C190.968 22.9814 189.921 19.5094 189.649 18.581C189.565 18.2662 189.482 17.5596 189.419 16.7243L189.232 17.3557C187.746 19.25 183.354 22.5915 182.265 22.7382C181.177 22.8866 177.768 21.7365 175.947 22.2373C174.107 22.7382 171.24 24.6682 171.24 24.6682C168.102 24.3158 164.65 22.6254 164.169 22.1621C163.687 21.6988 164.169 16.8906 164.169 16.8906C176.197 12.2505 187.14 13.66 189.167 13.6046C189.167 13.1771 189.315 12.3238 189.335 12.0269C189.397 10.3937 188.016 8.72299 188.016 8.72299C188.016 8.72299 189.335 7.60859 184.606 3.72871C179.919 -0.16905 175.004 -1.09744 166.636 1.3532C166.636 1.3532 161.008 3.09909 159.587 8.66758C158.143 14.2361 159.649 21.012 160.109 22.9796C160.548 24.9652 162.828 25.2997 162.808 26.4696C162.788 27.6198 162.975 28.3818 163.31 28.9578C163.624 29.5337 165.402 31.6302 166.636 32.0398C167.326 32.2634 167.85 32.2992 168.204 32.3368C168.289 32.3547 168.352 32.3743 168.414 32.3743C168.414 32.3922 168.434 32.3923 168.434 32.3923C168.539 32.4101 168.622 32.4477 168.706 32.5031C169.188 32.707 170.212 33.0236 172.325 33.4494C175.818 34.1363 178.036 35.7319 178.036 35.7319C178.036 35.7319 176.55 35.1004 173.182 34.5996C171.781 34.3957 169.835 34.1363 168.015 33.9127C167.513 34.469 166.781 35.2489 165.922 36.2703C164.019 38.5349 160.169 43.175 159.437 45.1999C158.893 46.7776 158.915 49.9706 158.956 51.3265C159.478 50.8811 160.127 50.4536 160.901 50.1942C163.433 49.341 162.637 50.3427 167.344 49.6558C172.051 48.951 175.377 47.6506 177.804 46.7222C180.251 45.7938 185.607 43.937 187.198 42.8423C188.788 41.7655 190.796 40.5223 191.403 39.2039C192.03 37.8856 191.55 32.0935 191.55 32.0935C191.55 32.0935 192.721 36.3436 192.449 38.517C192.197 40.6707 191.927 39.9838 189.5 42.4524C187.053 44.9406 183.747 45.5523 179.207 47.4824C174.667 49.4125 172.053 49.8776 169.438 50.7309C166.824 51.5841 164.731 51.4356 162.304 51.1942C160.149 50.9902 157.807 52.9955 157.262 53.4767C157.242 53.5142 157.22 53.5321 157.18 53.5518C157.18 53.5697 157.18 53.5697 157.18 53.5697C157.159 53.5697 157.159 53.5876 157.159 53.5876C156.762 54.033 156.428 54.516 156.303 54.9989C155.926 56.4478 156.762 57.1526 156.825 58.4888C156.909 59.8251 157.222 61.274 157.557 62.6656C157.871 64.0573 153.499 78.5554 153.499 78.5554C153.499 78.5554 151.406 78.1476 149.126 79.0187C146.824 79.8916 145.403 83.1401 144.272 85.1632C143.206 87.1487 143.101 88.6156 143.163 88.857C143.038 88.7837 142.347 88.9322 139.377 91.6422C135.277 95.3915 133.624 96.7098 133.414 97.7688C133.185 98.808 133.017 100.237 133.017 100.237C133.017 100.237 135.549 98.343 136.071 98.6417C136.593 98.9565 135.842 103.84 135.842 103.84C135.842 103.84 131.407 103.951 126.135 104.303C120.864 104.638 112.433 104.266 103.019 107.627C93.605 110.986 83.8139 121.42 83.0197 124.334C82.2456 127.23 86.8277 129.198 88.3759 129.328C89.9664 129.439 98.0621 127.917 103.563 125.615C109.045 123.275 113.103 121.772 120.299 121.086C127.476 120.381 135.592 121.197 135.592 121.197L133.269 128.901C131.659 128.77 130.048 128.677 128.395 128.641C102.035 127.972 80.2781 140.261 79.7761 156.078C79.2742 171.912 100.215 185.26 126.575 185.927C152.912 186.577 174.669 174.288 175.193 158.471C175.276 155.854 174.774 153.293 173.73 150.86C173.94 158.323 170.509 163.669 170.509 163.669C173.877 156.969 172.139 150.618 169.65 146.275C165.884 139.685 159.294 136.195 155.716 134.562C151.553 132.668 146.866 131.165 141.805 130.144L145.131 121.197C145.131 121.197 150.36 121.307 159 125.262C167.62 129.198 171.406 131.183 174.02 131.631C176.635 132.113 177.431 131.983 178.33 129.774C178.33 129.756 178.35 129.736 178.35 129.699C179.544 126.785 178.58 123.517 176.28 121.179C175.631 120.492 174.837 119.767 173.895 119.025C168.916 115.09 160.129 111.061 160.129 111.061C160.129 111.061 159.941 108.89 162.471 108.89C165.003 108.89 172.932 110.374 175.631 111.6C178.35 112.843 175.379 115.48 177.723 118.486C180.088 121.513 184.376 123.889 184.376 123.889C185.255 124.39 187.41 125.318 190.107 124.334C193.643 123.053 192.199 120.492 195.86 118.876C196.572 118.58 197.324 118.207 198.12 117.8C196.07 118.56 194.145 118.95 192.367 118.95C188.454 118.95 183.747 114.921 180.86 112.526C177.993 110.131 174.417 106.493 174.06 104.266C173.726 102.019 175.189 100.071 176.153 100.461C176.153 100.461 178.078 101.704 182.346 100.924C186.613 100.164 206.236 84.2921 207.534 83.3637C208.852 82.4353 215.38 76.2533 216.696 76.4214C217.992 76.5699 232.72 92.4972 232.91 93.1287C232.91 93.778 216.362 106.142 208.768 111.6C210.483 111.618 214.354 111.489 217.303 110.17C221.216 108.426 226.068 103.339 226.068 103.339C226.068 103.339 226.068 107.385 228.41 108.314C230.775 109.242 235.355 108.314 239.54 106.122C243.725 103.913 245.271 99.012 248.285 96.4129C251.297 93.8138 255.879 89.6369 256.004 87.206C256.109 85.3313 255.125 82.6213 253.222 81.4318C249.394 82.9165 243.221 85.4601 242.01 86.7963C240.252 88.764 240.504 91.1395 238.683 92.1985C236.843 93.2378 231.821 95.5578 231.821 95.5578C231.821 95.5578 237.051 91.9016 237.302 91.195C237.575 90.5081 239.143 89.9321 239.54 88.3544C239.917 86.7946 239.917 85.8662 241.235 85.1614C242.532 84.4745 250.315 80.9291 250.315 80.9291L251.299 80.8183L255.107 78.8881C240.254 76.7899 240.965 67.7136 240.965 67.7136C245.42 77.4589 258.35 76.7362 258.35 76.7362C269.208 76.6987 283.309 71.8726 296.237 62.925C317.012 48.5432 326.928 28.9775 318.351 19.2304ZM163.082 21.7937C163.082 21.7937 161.596 21.5146 160.592 21.0137C160.592 21.0137 160.028 18.2107 159.839 15.8155C159.839 15.8155 161.596 16.7439 163.082 16.93C163.082 16.93 162.852 20.7902 163.082 21.7937ZM160.133 11.1558C160.447 6.47809 163.919 3.59994 163.919 3.59994C163.04 5.7912 164.923 8.35275 166.743 8.0737C168.583 7.81433 174.734 4.43531 175.947 4.28684C177.161 4.13837 182.265 4.63921 182.265 4.63921C181.429 3.09907 179.818 1.78075 179.818 1.78075C183.396 3.17242 186.805 7.73918 186.805 7.73918L185.277 6.64444C185.277 6.64444 177.201 5.75362 176.302 6.18114C175.381 6.60866 167.745 10.7855 165.695 11.1379C163.647 11.4903 160.133 11.1558 160.133 11.1558ZM198.249 21.588C200.047 22.3679 203.5 24.9849 204.567 26.5822C205.633 28.1796 205.675 31.0184 205.655 32.1149C205.613 33.1542 206.45 36.5708 206.534 36.9787C206.367 36.6263 205.028 33.7303 204.274 31.9665C203.48 30.0919 203.353 28.1796 203.353 28.1796C203.353 28.1796 201.618 31.0936 199.253 31.9665C199.253 31.9665 202.015 28.6805 201.89 26.2495C201.89 26.2495 201.095 24.4679 199.547 23.7989C199.547 23.7989 199.652 27.0473 197.183 28.625C197.183 28.625 198.813 24.0762 197.747 23.112C196.658 22.1657 195.048 21.5164 195.048 21.5164C195.048 21.5164 196.429 20.8098 198.249 21.588ZM181.556 56.8592C181.91 61.5924 190.091 63.2828 191.117 63.467C190.343 63.374 186.033 62.8177 183.773 61.4993C181.283 60.0522 181.556 56.8592 181.556 56.8592ZM167.707 62.5208C170.154 60.478 170.406 58.4745 171.2 57.8431C171.889 57.2868 177.393 55.2064 178.439 54.8361C177.685 55.2637 174.401 57.0453 172.414 59.0863C170.154 61.4063 168.815 64.9338 163.084 64.6548C163.084 64.6548 165.257 64.5636 167.707 62.5208ZM170.823 74.2158C171.472 75.1997 171.242 78.9132 171.242 78.9132L169.087 79.7664C169.192 79.4695 170.216 76.6844 169.841 75.366C169.464 73.9743 168.795 73.3429 169.654 72.0621C170.513 70.7813 171.829 69.7975 172.059 68.0714C172.059 68.0714 172.456 69.6312 171.285 70.8565C170.111 72.0621 170.174 73.232 170.823 74.2158ZM157.413 79.432C158.063 77.8918 160.53 68.0517 161.012 66.084C160.865 66.7888 160.615 68.5526 161.094 71.0032C161.701 74.2516 161.346 74.4752 161.094 76.4232C160.822 78.3533 159.464 83.3655 159.464 83.3655L156.285 83.9969C156.285 83.9969 156.722 81.1403 157.413 79.432ZM114.191 107.593C105.404 108.205 92.1193 113.904 83.7514 124.373C84.2332 123.52 88.4162 116.503 96.1571 111.974C104.42 107.147 111.325 106.126 113.814 105.829C113.814 105.829 121.595 105.366 126.637 105.069C131.659 104.79 136.051 105.069 136.051 105.069L139.712 106.46L138.855 109.357C138.855 109.357 122.998 106.961 114.191 107.593ZM164.338 153.91C163.983 165.66 146.911 174.756 126.242 174.238C105.593 173.717 89.1298 163.768 89.5067 152.035C89.8837 140.303 106.934 131.207 127.603 131.727C129.213 131.765 130.782 131.876 132.33 132.042L131.765 133.917C130.385 133.786 128.984 133.693 127.54 133.657C108.063 133.174 91.9964 141.435 91.6416 152.109C91.5992 153.167 91.7262 154.207 91.9964 155.209C94.4658 145.723 109.549 138.705 127.54 139.151C128.419 139.168 129.276 139.226 130.155 139.281L128.085 146.15C120.678 146.502 114.862 149.864 114.862 153.983C114.862 158.326 121.347 161.836 129.338 161.836C137.329 161.836 143.814 158.328 143.814 153.983C143.814 150.846 140.446 148.154 135.571 146.892L138.019 140.32C150.549 142.789 159.943 148.916 161.846 156.266C162.056 155.486 162.181 154.688 162.201 153.87C162.473 145.592 153.184 138.296 139.9 135.213L140.589 133.394C154.714 136.775 164.63 144.776 164.338 153.91ZM141.22 151.774C141.262 151.998 141.282 152.219 141.282 152.443C141.282 155.988 135.886 158.884 129.232 158.884C122.599 158.884 117.203 155.988 117.203 152.443C117.203 152.219 117.223 151.998 117.265 151.774C117.872 155.022 123.019 157.546 129.232 157.546C135.469 157.548 140.613 155.022 141.22 151.774ZM163.794 98.8492C163.794 98.8492 162.915 98.1802 161.596 97.4933C160.3 96.7885 157.601 95.5632 157.601 95.5632C157.601 95.5632 156.555 95.0999 156.472 94.9317C156.367 94.7833 158.814 93.5759 158.689 92.8156C158.564 92.0357 158.732 90.6065 158.732 90.6065C158.732 90.6065 160.427 91.3489 162.832 92.4633C165.05 93.4847 166.89 95.0999 166.89 95.0999L163.794 98.8492ZM157.581 87.748C155.95 89.2524 156.472 92.7781 156.472 92.7781L150.676 94.8566C150.676 94.8566 146.346 94.3934 141.387 95.2466C136.723 96.0444 136.325 96.3056 136.053 96.4165L140.613 92.2021C140.613 92.2021 143.208 89.6781 147.663 87.9698C152.098 86.2812 156.47 85.0738 160.653 84.0721C164.838 83.0703 172.974 79.2459 172.974 79.2459L173.978 80.7503C173.978 80.7503 171.279 84.0363 168.749 84.4638C166.221 84.8895 159.212 86.2454 157.581 87.748ZM191.847 88.2864C191.072 89.0663 190.591 89.4563 189.587 89.9947C188.583 90.5332 185.277 92.9641 183.708 93.5025C182.14 94.0589 181.344 93.7064 181.344 93.7064C181.344 93.7064 181.177 95.1732 182.013 96.7509C182.767 98.2177 183.08 98.2732 183.142 98.2732C183.142 98.2732 180.777 100.668 180.213 100.5C179.648 100.352 178.518 99.6649 178.518 98.9226C178.518 98.1802 179.374 96.5274 179.774 96.1374C180.171 95.7475 180.213 94.8566 180.213 94.8566C180.213 94.8566 178.247 95.9889 177.556 95.9514C176.867 95.9138 175.945 95.3575 176.113 95.0981C176.28 94.8567 179.022 92.2575 179.711 91.6082C178.957 92.2021 175.673 94.8942 175.109 94.8191C174.502 94.7439 173.016 93.2038 173.016 93.2038C173.016 93.2038 172.849 92.7405 172.2 92.6475C171.551 92.5724 171.446 93.5759 171.446 93.5759C171.446 93.5759 171.404 92.2772 171.718 91.9982C172.01 91.7388 177.764 87.2096 178.643 87.1345C179.522 87.0415 180.044 87.2096 180.608 87.0039C181.173 86.8179 188.704 80.8969 189.061 81.0633C189.415 81.2118 193.558 85.5371 193.6 85.8519C193.647 86.1703 192.643 87.5083 191.847 88.2864ZM195.612 65.5653C193.165 66.939 190.613 68.5919 189.734 69.1661C189.524 69.2967 189.419 69.37 189.419 69.37C187.766 70.5578 184.315 72.7115 181.281 74.1586C177.223 76.0708 173.081 78.076 173.081 78.076C173.081 78.076 173.5 76.1817 172.976 75.0137C172.454 73.8635 171.553 74.6791 172.389 72.1176C173.246 69.5739 173.184 68.9246 173.373 67.7172C173.561 66.4919 174.941 63.0198 174.941 63.0198C174.941 63.0198 176.971 64.6906 181.551 65.9159C184.773 66.7888 187.954 67.5687 189.46 68.0875C191.762 66.5652 195.296 64.3936 197.493 63.7622C200.527 62.9089 201.99 62.5744 202.325 62.519C201.847 62.7068 198.396 64.0054 195.612 65.5653ZM220.049 56.2833C220.049 56.2833 220.905 53.4981 220.571 52.4588C220.256 51.3999 216.785 49.0244 214.106 49.2658C211.429 49.4894 207.433 49.3213 201.156 49.2658C194.88 49.2104 190.298 49.7291 186.783 50.713C183.247 51.6968 181.554 55.65 181.554 55.65C181.554 54.7771 182.453 51.9937 184.483 50.8239C186.513 49.6737 188.603 48.8562 191.282 48.4484C193.959 48.0405 196.511 47.8724 198.751 46.8885C200.968 45.9047 202.474 46.1283 204.692 45.9602C206.909 45.7938 206.26 46.368 209.211 46.6471C212.14 46.944 213.124 46.4807 216.972 48.6899C220.843 50.8811 221.302 51.1208 221.617 52.4588C221.952 53.7968 220.049 56.2833 220.049 56.2833ZM232.16 43.9388C232.16 43.9388 230.989 44.5881 228.04 46.5182C225.068 48.4483 222.538 52.7003 222.538 52.7003C222.538 52.7003 222.726 51.4375 221.659 50.3803C220.593 49.341 218.019 47.9851 218.019 47.9851C218.019 47.9851 223.52 41.6367 225.195 39.5205C229.316 34.342 239.359 26.3784 239.359 26.3784L240.363 28.6984C240.363 28.6984 239.149 30.2028 236.911 34.6014C234.692 39.0197 232.16 43.9388 232.16 43.9388ZM286.909 52.3121C270.591 63.6173 253.228 68.091 248.166 62.3365C247.727 61.816 247.412 61.2221 247.182 60.5906C248.019 60.1273 248.918 59.6247 249.882 59.0863C250.091 59.8286 250.404 60.5334 250.928 61.1094C251.744 62.0378 252.936 62.6692 254.401 63.0395C254.339 60.757 255.363 57.954 257.288 54.8898C262.267 52.0689 267.476 49.0977 271.389 46.8707C273.229 46.3144 275.28 45.4414 277.372 44.2716L282.519 50.2676C281.912 51.0099 281.682 51.6789 281.974 52.0313C282.539 52.7003 284.589 52.1798 286.576 50.8811C288.544 49.5825 289.715 47.9851 289.149 47.3357C288.856 46.9637 288.102 46.9637 287.161 47.2427L281.994 41.2288C286.974 37.3865 289.631 33.2097 288.082 31.3351C287.915 31.149 287.685 31.0381 287.455 30.9075C295.259 27.4355 302.308 26.0062 306.743 27.1207C306.701 25.7648 306.284 24.577 305.447 23.6487C300.782 18.3574 284.798 22.4788 269.736 32.8197C261.66 38.3525 255.532 44.5524 252.268 49.9348C251.012 50.6217 249.779 51.3086 248.628 51.9401L233.001 61.909L251.662 47.096C255.447 41.9908 261.263 36.4599 268.545 31.4281C284.883 20.123 302.226 15.6313 307.29 21.4037C312.353 27.1761 303.226 41.0052 286.909 52.3121Z" fill="#FCA311"/>
<path d="M220.706 94.6885C220.575 94.2824 213.906 87.2042 213.318 87.3205C212.729 87.4368 192.201 103.389 188.016 105.303C183.831 107.217 180.759 106.811 180.759 106.811C180.955 109.713 188.016 113.481 190.695 113.888C193.377 114.294 198.017 112.805 202.92 109.208C207.828 105.614 220.837 95.0946 220.706 94.6885Z" fill="#FCA311"/>
<path d="M190.339 302.484C144.861 302.484 103.858 285.186 75.2526 257.585H64.5079C94.7057 289.408 139.902 309.639 190.339 309.639C240.776 309.639 285.972 289.408 316.17 257.585H305.445C276.84 285.186 235.817 302.484 190.339 302.484Z" fill="#FCA311"/>
<path d="M355.07 186.441V194.15H136.045L127.558 191.914C115.383 193.238 79.5806 197.084 79.7621 196.154C79.7621 195.045 26.5833 193.936 26.5833 193.936V186.441C27.7727 168.231 32.7519 150.897 40.8355 135.085L40.8557 135.031C40.9161 135.746 41.8233 145.245 42.7506 146.443C43.0328 146.801 43.3352 147.266 43.6578 147.821C44.4641 149.18 45.3309 151.041 45.8148 152.972C45.8551 153.133 45.9155 153.294 45.976 153.455C45.6938 154.403 45.472 155.334 45.472 155.763C45.472 156.8 44.8068 157.623 43.7989 158.446C43.0933 159.019 42.4886 160.324 42.2265 160.879C42.6902 160.271 44.4641 159.376 45.1294 159.001C45.8954 158.571 46.5606 157.552 46.5606 156.729C46.5606 156.407 46.7622 155.781 46.9839 155.119C48.6773 157.355 51.5197 159.645 51.5197 160.754C51.5197 162.256 49.1611 167.623 50.1691 169.107C51.177 170.592 54.7047 176.119 55.0474 176.567C55.3901 177.014 58.414 169.859 60.4298 165.834C62.4457 161.809 62.4457 157.033 64.2802 154.046C66.1348 151.076 70.0052 145.406 71.3357 144.207C72.6864 143.027 70.6705 144.511 71.3357 146.3C72.0211 148.089 72.525 148.608 73.1903 151.148C73.8555 153.688 74.2789 153.455 75.0449 154.493C75.7908 155.548 74.7828 155.763 74.6215 156.514C74.4603 157.212 73.2104 160.414 73.0492 160.807C73.2709 160.485 75.1659 157.588 75.307 158.231C75.4683 158.893 75.9722 161.058 76.3754 163.151C76.7987 165.226 79.5 173.436 90.6679 179.983C94.486 182.228 98.4653 184.035 102.38 185.489C109.851 188.265 132.659 194.597 157.024 184.815C168.134 180.353 176.631 173.579 182.531 162.167C182.531 162.167 182.249 166.639 182.531 168.428C182.793 170.216 185.575 172.238 185.817 175.368C186.079 178.498 190.837 184.312 190.837 184.312C190.837 184.312 198.174 170.234 198.678 165.655C198.86 163.991 199.505 161.577 200.311 159.072C201.601 159.752 202.811 159.358 203.98 160.02C205.492 160.843 207.004 162.954 207.226 163.258C207.145 162.918 206.319 160.217 205.23 159.001C204.061 157.677 203.718 156.89 202.871 156.282C202.529 156.031 202.085 155.512 201.722 154.994C202.771 152.096 203.779 149.627 204.222 148.751C205.23 146.747 207.508 136.516 208.516 134.816C209.524 133.117 211.016 128.18 211.016 128.18C211.016 128.18 214.039 137.356 215.571 140.487C217.063 143.617 220.349 148.322 222.103 154.35C223.877 160.378 221.861 164.206 222.103 165.655C222.365 167.104 222.526 168.75 224.22 165.655C225.893 162.542 225.046 169.859 226.739 172.542C228.413 175.225 230.932 180.144 231.275 181.486C231.537 182.595 234.904 174.903 236.718 169.805C236.718 169.805 236.718 169.787 236.738 169.805C236.879 169.608 237.625 168.732 238.23 168.803C238.915 168.875 239.661 169.322 240.165 169.698C240.669 170.073 241.677 169.322 241.012 169.179C240.346 169.036 239.58 167.909 238.754 167.533C238.411 167.39 238.048 166.997 237.766 166.585C238.895 162.381 239.883 155.691 240.85 152.972C241.858 150.182 243.874 142.58 243.874 142.58C243.874 142.58 245.205 138.841 246.051 139.288C246.898 139.735 246.717 143.617 247.906 144.816C249.075 145.996 252.603 150.844 252.603 151.774C252.603 152.704 252.603 155.334 252.603 155.334C252.603 155.334 251.938 156.443 252.603 157.48C253.268 158.518 251.938 158.375 254.619 160.754C257.3 163.151 259.316 164.492 259.316 164.492C259.316 164.492 256.131 163.687 256.473 165.655C256.796 167.623 255.284 163.884 257.643 169.698C260.001 175.511 259.82 174.778 260.163 177.3C260.505 179.84 261.836 180.43 262.178 181.629C262.521 182.827 263.348 183.722 263.348 183.722C263.348 183.722 266.633 175.386 269.335 168.821C271.572 169.072 274.556 169.465 276.169 169.787C278.749 170.306 281.249 171.021 281.531 171.093C281.047 170.753 276.491 167.64 275.665 167.211C274.778 166.764 272.762 167.319 271.875 167.211C271.431 167.158 270.806 166.8 270.302 166.478C271.512 163.634 272.459 161.469 272.762 161.058C273.77 159.716 277.056 153.402 278.063 152.972C279.071 152.561 283.345 151.774 283.345 151.774C283.345 151.774 279.555 149.431 279.555 147.195C279.555 144.959 280.079 142.955 281.087 141.166C282.095 139.378 282.337 137.857 283.345 134.816C284.091 132.562 286.187 125.676 287.256 122.187C287.437 121.561 288.445 121.526 288.687 122.152C290.219 125.962 293.485 134.047 294.432 136.229C295.219 138.072 296.126 139.288 296.872 141.184C296.872 141.184 296.065 142.383 295.823 143.957C295.561 145.513 293.424 146.64 292.799 147.195C292.175 147.749 291.288 148.751 291.288 149.216C291.288 149.645 291.65 148.322 293.183 147.982C294.674 147.642 296.489 147.839 298.101 146.39L298.121 146.372C298.686 150.575 298.565 152.311 299.976 155.352C301.488 158.589 301.992 161.505 302.496 162.632C303 163.741 307.052 168.893 308.685 172.47C310.317 176.048 313.341 179.393 313.341 179.393C313.341 179.393 313.341 176.262 314.833 172.238C316.365 168.213 316.849 158.16 318.865 156.8C320.881 155.477 323.159 145.853 323.904 142.955C324.67 140.04 329.206 147.642 329.952 149.878C330.214 150.647 330.597 151.524 330.98 152.346C331.081 151.917 331.162 151.506 331.222 151.219C331.444 150.057 332.351 148.983 332.109 147.535C331.847 146.068 333.5 146.068 333.5 145.513C333.5 144.959 334.951 144.905 335.193 143.85C335.435 142.794 335.758 141.435 335.758 139.7C335.758 137.965 335.516 138.018 335.758 137.016C336 136.015 336.141 134.673 337.008 132.223C337.895 129.754 338.358 130.469 338.358 130.469C347.873 147.517 353.739 166.442 355.07 186.441Z" fill="#FCA311"/>
<path d="M318.22 32.2652L352.161 61.1541L315.684 35.9913L318.22 32.2652Z" fill="#FCA311"/>
<path d="M248.993 89.0592L281.065 118.458L245.848 93.1484L247.124 89.569" fill="#FCA311"/>
<path d="M271.58 71.3788L291.292 88.1558L270.841 73.4574L271.58 71.3788Z" fill="#FCA311"/>
<path d="M314.841 39.5062L334.552 56.2832L314.099 41.5848L314.841 39.5062Z" fill="#FCA311"/>
<path d="M174.722 124.375L194.433 141.152L173.982 126.454L174.722 124.375Z" fill="#FCA311"/>
<path d="M97.4936 146.941L117.205 163.718L96.7518 149.019L97.4936 146.941Z" fill="#FCA311"/>
<path d="M218.761 106.271L238.47 123.048L218.019 108.35L218.761 106.271Z" fill="#FCA311"/>
</svg>
