<svg width="74" height="74" viewBox="0 0 74 74" fill="none" xmlns="http://www.w3.org/2000/svg">
<path d="M18 24.5002H22.25H56.25" stroke="#FCA311" stroke-width="2" stroke-linecap="round" stroke-linejoin="round"/>
<path d="M52 24.5002V54.2502C52 55.3774 51.5522 56.4584 50.7552 57.2554C49.9582 58.0525 48.8772 58.5002 47.75 58.5002H26.5C25.3728 58.5002 24.2918 58.0525 23.4948 57.2554C22.6978 56.4584 22.25 55.3774 22.25 54.2502V24.5002M28.625 24.5002V20.2502C28.625 19.1231 29.0728 18.0421 29.8698 17.245C30.6668 16.448 31.7478 16.0002 32.875 16.0002H41.375C42.5022 16.0002 43.5832 16.448 44.3802 17.245C45.1772 18.0421 45.625 19.1231 45.625 20.2502V24.5002" stroke="#FCA311" stroke-width="2" stroke-linecap="round" stroke-linejoin="round"/>
<path d="M32.875 35.1252V47.8752" stroke="#FCA311" stroke-width="2" stroke-linecap="round" stroke-linejoin="round"/>
<path d="M41.375 35.1252V47.8752" stroke="#FCA311" stroke-width="2" stroke-linecap="round" stroke-linejoin="round"/>
<circle cx="37" cy="37.0002" r="36" stroke="black" stroke-width="2"/>
</svg>
