<svg width="127" height="96" viewBox="0 0 127 96" fill="none" xmlns="http://www.w3.org/2000/svg">
<path d="M63.5768 88.7871C43.4621 88.7871 25.1908 82.1416 11.7775 71.3448H8.89526C22.7973 83.1477 42.1686 90.4781 63.5768 90.4781C84.985 90.4781 104.366 83.1477 118.269 71.3448H115.386C101.963 82.1416 83.6915 88.7871 63.5768 88.7871Z" fill="#1E2424"/>
<path d="M63.4462 73.962L65.7609 77.8387L70.9342 78.4605L67.1902 81.4784L68.0745 85.7392L63.4462 83.7273L58.819 85.7392L59.7032 81.4784L55.9592 78.4605L61.1326 77.8387L63.4462 73.962Z" fill="#1E2424"/>
<path d="M44.1362 73.962L45.8417 76.7615L49.6538 77.2105L46.8955 79.3902L47.5462 82.4678L44.1362 81.0144L40.7273 82.4678L41.3779 79.3902L38.6196 77.2105L42.4317 76.7615L44.1362 73.962Z" fill="#1E2424"/>
<path d="M27.9801 73.962L29.0757 75.685L31.5263 75.9611L29.7532 77.3026L30.1713 79.1963L27.9801 78.3025L25.7878 79.1963L26.207 77.3026L24.4329 75.9611L26.8835 75.685L27.9801 73.962Z" fill="#1E2424"/>
<path d="M83.1501 73.962L81.5674 76.7615L78.0276 77.2105L80.5888 79.3902L79.9847 82.4678L83.1501 81.0144L86.3165 82.4678L85.7123 79.3902L88.2736 77.2105L84.7338 76.7615L83.1501 73.962Z" fill="#1E2424"/>
<path d="M99.3072 73.962L98.0898 75.685L95.3669 75.9611L97.337 77.3026L96.8713 79.1963L99.3072 78.3025L101.743 79.1963L101.277 77.3026L103.249 75.9611L100.525 75.685L99.3072 73.962Z" fill="#1E2424"/>
<path d="M112.82 7.71569C112.19 7.03654 111.349 6.54124 110.347 6.21541C110.558 6.33056 111.988 7.11177 112.351 8.1233C112.222 7.96038 111.584 7.24722 109.904 6.61583C106.947 5.50223 103.36 6.06558 101.905 6.44637C100.25 6.87427 98.5284 7.49192 96.7994 8.29342C98.0356 7.03719 98.9083 6.02566 98.9083 6.02566C98.9083 6.02566 99.918 3.59497 98.9083 2.97013C97.8986 2.35248 95.8138 2.57625 95.8138 2.57625C95.8138 2.57625 85.6507 7.89299 82.1444 10.0992C78.6458 12.3062 75.4143 16.156 75.4143 16.156C75.4143 16.156 74.477 16.0474 74.3805 15.4566C74.2754 14.8592 73.6939 14.3292 73.1202 13.8405C72.5386 13.3583 72.8376 13.039 71.7305 12.8898C71.2456 12.8289 70.8415 12.7949 70.5426 12.7877C70.6477 13.2156 70.7605 13.6566 70.8337 13.9491C71.0354 14.7166 71.2782 15.4768 70.8337 15.9859C70.4219 16.4609 68.717 17.0929 68.5068 17.1675C68.6843 17.0524 69.961 16.2914 70.3324 15.8707C70.7364 15.4225 70.5426 14.9678 70.179 13.9491C69.8318 12.9984 69.8637 12.0072 69.8723 11.8783C69.8723 11.8717 69.8723 11.8645 69.8723 11.8645C69.7267 11.1854 69.3227 10.2419 68.2484 9.40636C66.4384 8.00095 65.4769 7.53902 63.9667 8.78871C64.0235 9.21662 64.0554 9.82773 63.9021 10.0109C63.7005 10.2556 63.1181 10.9479 62.9002 11.1991C63.0862 10.9341 63.5946 10.2079 63.6273 10.0044C63.6678 9.74659 63.6273 9.08772 63.6273 9.08772C63.6273 9.08772 63.2232 7.81776 63.1181 7.47818C63.0854 7.36303 63.0535 7.10459 63.0294 6.79903L62.957 7.02999C62.3832 7.72289 60.6869 8.9451 60.2665 8.99875C59.8462 9.05305 58.5297 8.63235 57.8268 8.81555C57.116 8.99875 56.009 9.70471 56.009 9.70471C54.7969 9.57582 53.4641 8.95751 53.2781 8.78805C53.092 8.61859 53.2781 6.85987 53.2781 6.85987C57.9233 5.16265 62.1489 5.67823 62.9321 5.65794C62.9321 5.50157 62.9889 5.18948 62.9967 5.08087C63.0208 4.4835 62.4876 3.87239 62.4876 3.87239C62.4876 3.87239 62.9967 3.46477 61.1704 2.04562C59.3604 0.619929 57.4624 0.280351 54.2309 1.17673C54.2309 1.17673 52.0574 1.81532 51.5086 3.85212C50.9512 5.88892 51.5327 8.36735 51.7102 9.08706C51.8799 9.81332 52.7604 9.93569 52.7526 10.3636C52.7448 10.7843 52.8172 11.063 52.9464 11.2737C53.0679 11.4844 53.7545 12.2512 54.2309 12.401C54.4972 12.4828 54.6996 12.4959 54.8366 12.5097C54.8693 12.5162 54.8934 12.5234 54.9176 12.5234C54.9176 12.5299 54.9254 12.5299 54.9254 12.5299C54.9658 12.5365 54.9978 12.5502 55.0305 12.5705C55.2165 12.6451 55.612 12.7609 56.4278 12.9166C57.7769 13.1679 58.6333 13.7515 58.6333 13.7515C58.6333 13.7515 58.0595 13.5205 56.7587 13.3373C56.2176 13.2627 55.4664 13.1679 54.7634 13.0861C54.5696 13.2896 54.287 13.5748 53.9554 13.9484C53.2205 14.7768 51.7335 16.474 51.451 17.2146C51.2408 17.7917 51.2493 18.9596 51.2649 19.4556C51.4665 19.2927 51.7172 19.1363 52.0161 19.0414C52.9939 18.7293 52.6864 19.0957 54.5042 18.8445C56.3219 18.5867 57.6065 18.111 58.5438 17.7714C59.4888 17.4319 61.5573 16.7527 62.1715 16.3523C62.7857 15.9584 63.5611 15.5037 63.7954 15.0215C64.0375 14.5392 63.8523 12.4207 63.8523 12.4207C63.8523 12.4207 64.3046 13.9753 64.1995 14.7702C64.1021 15.558 63.9978 15.3067 63.0605 16.2097C62.1155 17.1198 60.8387 17.3435 59.0856 18.0495C57.3324 18.7555 56.3227 18.9256 55.313 19.2377C54.3033 19.5498 53.4953 19.4955 52.558 19.4072C51.7258 19.3326 50.8212 20.066 50.611 20.242C50.6032 20.2558 50.5946 20.2623 50.5791 20.2695C50.5791 20.276 50.5791 20.276 50.5791 20.276C50.5713 20.276 50.5713 20.2826 50.5713 20.2826C50.4179 20.4455 50.2887 20.6222 50.2404 20.7988C50.0948 21.3288 50.4179 21.5866 50.442 22.0753C50.4747 22.5641 50.5954 23.0941 50.7246 23.6031C50.8461 24.1121 49.1575 29.4151 49.1575 29.4151C49.1575 29.4151 48.3495 29.266 47.469 29.5846C46.58 29.9039 46.0311 31.0921 45.5944 31.8321C45.1826 32.5583 45.1421 33.0948 45.1662 33.1832C45.118 33.1564 44.851 33.2107 43.7042 34.2019C42.1208 35.5733 41.4824 36.0555 41.4015 36.4428C41.3127 36.823 41.2481 37.3458 41.2481 37.3458C41.2481 37.3458 42.2259 36.6529 42.4275 36.7621C42.6291 36.8773 42.3388 38.6635 42.3388 38.6635C42.3388 38.6635 40.6261 38.7041 38.5904 38.833C36.5546 38.9553 33.299 38.8192 29.6634 40.0486C26.0279 41.2774 22.2468 45.0938 21.9401 46.1597C21.6411 47.219 23.4107 47.9387 24.0085 47.9864C24.6228 48.027 27.7492 47.4702 29.8737 46.6281C31.9904 45.7723 33.5575 45.2227 36.3367 44.9715C39.1081 44.7137 42.2423 45.0121 42.2423 45.0121L41.3454 47.8301C40.7234 47.7823 40.1014 47.7483 39.463 47.7352C29.2836 47.4905 20.8813 51.9855 20.6875 57.7707C20.4937 63.5624 28.5806 68.4447 38.7601 68.6888C48.931 68.9263 57.3332 64.4313 57.5356 58.6461C57.5675 57.6889 57.3737 56.7519 56.9704 55.8621C57.0514 58.5918 55.7264 60.5475 55.7264 60.5475C57.0273 58.0965 56.3562 55.7738 55.3948 54.1852C53.9406 51.7748 51.3957 50.4982 50.0139 49.9009C48.4063 49.208 46.5963 48.6584 44.6415 48.2848L45.926 45.0121C45.926 45.0121 47.9454 45.0526 51.282 46.4993C54.6108 47.9387 56.0728 48.6649 57.0825 48.8285C58.0922 49.0052 58.3997 48.9574 58.7469 48.1494C58.7469 48.1428 58.7547 48.1356 58.7547 48.1219C59.2156 47.056 58.8435 45.8607 57.9552 45.0055C57.7045 44.7543 57.3978 44.4893 57.0343 44.2178C55.1114 42.7783 51.718 41.3048 51.718 41.3048C51.718 41.3048 51.6456 40.5106 52.6226 40.5106C53.6004 40.5106 56.6622 41.0536 57.7046 41.5018C58.7547 41.9565 57.6072 42.9209 58.5126 44.0208C59.4258 45.1279 61.0816 45.9968 61.0816 45.9968C61.421 46.18 62.2533 46.5195 63.2949 46.1597C64.6603 45.6912 64.1029 44.7543 65.5167 44.1634C65.7915 44.0548 66.0818 43.9187 66.3893 43.7696C65.5976 44.0476 64.8542 44.1903 64.1675 44.1903C62.6565 44.1903 60.8387 42.7168 59.7239 41.8407C58.6169 40.9646 57.2359 39.6338 57.0981 38.8192C56.9689 37.9974 57.5341 37.2849 57.9062 37.4275C57.9062 37.4275 58.6496 37.8823 60.2977 37.597C61.9457 37.3189 69.5235 31.5134 70.0249 31.1739C70.534 30.8343 73.0548 28.5731 73.5631 28.6346C74.0637 28.6889 79.7513 34.5147 79.8245 34.7456C79.8245 34.9831 73.4339 39.5056 70.5013 41.5018C71.1638 41.5084 72.6585 41.4612 73.7974 40.979C75.3085 40.3411 77.1823 38.4803 77.1823 38.4803C77.1823 38.4803 77.1823 39.9603 78.0869 40.2999C79 40.6395 80.7688 40.2999 82.3849 39.4984C84.0011 38.6903 84.5981 36.8976 85.762 35.9469C86.925 34.9962 88.6945 33.4684 88.7428 32.5793C88.7833 31.8936 88.4034 30.9023 87.6685 30.4672C86.1902 31.0103 83.8064 31.9407 83.3386 32.4294C82.6597 33.1492 82.757 34.0181 82.0541 34.4054C81.3433 34.7855 79.4041 35.6341 79.4041 35.6341C79.4041 35.6341 81.4235 34.2968 81.5208 34.0383C81.6259 33.7871 82.2316 33.5764 82.3849 32.9993C82.5305 32.4288 82.5305 32.0892 83.0396 31.8314C83.5402 31.5802 86.5459 30.2834 86.5459 30.2834L86.9258 30.2428L88.3964 29.5368C82.6605 28.7694 82.9353 25.4495 82.9353 25.4495C84.6558 29.0141 89.649 28.7497 89.649 28.7497C93.8419 28.736 99.2874 26.9707 104.28 23.698C112.303 18.4375 116.132 11.2809 112.82 7.71569ZM52.8585 8.65327C52.8585 8.65327 52.2847 8.5512 51.897 8.368C51.897 8.368 51.6791 7.34273 51.6059 6.46664C51.6059 6.46664 52.2847 6.80622 52.8585 6.87427C52.8585 6.87427 52.7697 8.28622 52.8585 8.65327ZM51.7195 4.76223C51.841 3.05127 53.1815 1.99852 53.1815 1.99852C52.8421 2.80002 53.5692 3.73697 54.2722 3.6349C54.983 3.54003 57.3581 2.30407 57.8268 2.24977C58.2954 2.19546 60.2665 2.37866 60.2665 2.37866C59.9435 1.81531 59.3215 1.33311 59.3215 1.33311C60.7033 1.84215 62.0197 3.51254 62.0197 3.51254L61.4296 3.11211C61.4296 3.11211 58.311 2.78628 57.9638 2.94265C57.608 3.09903 54.6591 4.62679 53.8674 4.75568C53.0764 4.88458 51.7195 4.76223 51.7195 4.76223ZM66.4392 8.57804C67.1336 8.86331 68.4671 9.82053 68.879 10.4048C69.2908 10.9891 69.3071 12.0274 69.2993 12.4285C69.283 12.8086 69.606 14.0584 69.6387 14.2075C69.5741 14.0786 69.0572 13.0193 68.7661 12.3742C68.4593 11.6885 68.4103 10.9891 68.4103 10.9891C68.4103 10.9891 67.74 12.0549 66.8269 12.3742C66.8269 12.3742 67.8934 11.1723 67.8451 10.2831C67.8451 10.2831 67.5384 9.63144 66.9405 9.38673C66.9405 9.38673 66.981 10.5749 66.0273 11.152C66.0273 11.152 66.6571 9.48814 66.2453 9.13548C65.8249 8.78937 65.2029 8.55186 65.2029 8.55186C65.2029 8.55186 65.7362 8.29342 66.4392 8.57804ZM59.9925 21.4793C60.1295 23.2105 63.2886 23.8288 63.6849 23.8962C63.3859 23.8622 61.7215 23.6587 60.8489 23.1765C59.8874 22.6472 59.9925 21.4793 59.9925 21.4793ZM54.6443 23.5501C55.5894 22.8029 55.6867 22.0701 55.9934 21.8391C56.2597 21.6357 58.3849 20.8747 58.789 20.7393C58.4978 20.8957 57.2297 21.5473 56.4621 22.2939C55.5894 23.1425 55.0725 24.4327 52.8593 24.3307C52.8593 24.3307 53.6985 24.2973 54.6443 23.5501ZM55.8479 27.8278C56.0985 28.1877 56.0098 29.546 56.0098 29.546L55.1776 29.8581C55.2181 29.7495 55.6135 28.7308 55.4687 28.2485C55.3232 27.7395 55.0647 27.5085 55.3963 27.0401C55.728 26.5716 56.2363 26.2117 56.3251 25.5804C56.3251 25.5804 56.4784 26.1509 56.0261 26.5991C55.5731 27.0401 55.5972 27.468 55.8479 27.8278ZM50.6694 29.7357C50.92 29.1724 51.8729 25.5732 52.059 24.8534C52.0021 25.1112 51.9056 25.7564 52.0909 26.6527C52.3252 27.8409 52.1882 27.9227 52.0909 28.6352C51.9858 29.3412 51.4611 31.1745 51.4611 31.1745L50.2334 31.4055C50.2334 31.4055 50.4023 30.3606 50.6694 29.7357ZM33.9778 40.0362C30.5844 40.26 25.4542 42.3445 22.2227 46.1741C22.4087 45.862 24.0241 43.2952 27.0135 41.6385C30.2045 39.8733 32.8708 39.4997 33.8323 39.3911C33.8323 39.3911 36.8372 39.2216 38.7842 39.113C40.7234 39.0109 42.4197 39.113 42.4197 39.113L43.8335 39.622L43.5026 40.6813C43.5026 40.6813 37.379 39.8052 33.9778 40.0362ZM53.3435 56.9777C53.2064 61.2757 46.6135 64.6027 38.6316 64.413C30.6576 64.2226 24.2997 60.5834 24.4452 56.292C24.5908 52.0005 31.1753 48.6734 39.1571 48.8638C39.7791 48.8776 40.3848 48.9181 40.9827 48.979L40.7647 49.6647C40.2314 49.6169 39.6904 49.5829 39.133 49.5698C31.6112 49.3932 25.4067 52.4147 25.2697 56.3188C25.2533 56.7061 25.3024 57.0863 25.4067 57.4527C26.3603 53.983 32.185 51.4162 39.133 51.5791C39.4724 51.5857 39.8032 51.6066 40.1427 51.6269L39.3432 54.1394C36.483 54.2682 34.2371 55.4977 34.2371 57.0045C34.2371 58.5931 36.7414 59.8768 39.8274 59.8768C42.9133 59.8768 45.4177 58.5938 45.4177 57.0045C45.4177 55.8569 44.1168 54.8722 42.2345 54.4109L43.1795 52.007C48.0186 52.91 51.6464 55.1509 52.3813 57.8394C52.4622 57.5541 52.5105 57.2623 52.5183 56.9633C52.6234 53.9352 49.0361 51.2664 43.9059 50.1391L44.1721 49.4736C49.627 50.7102 53.4563 53.6369 53.3435 56.9777ZM44.4158 56.1964C44.4321 56.2782 44.4399 56.3594 44.4399 56.4411C44.4399 57.7379 42.3559 58.7972 39.7861 58.7972C37.2249 58.7972 35.1409 57.7379 35.1409 56.4411C35.1409 56.3594 35.1487 56.2782 35.165 56.1964C35.3994 57.3846 37.3868 58.3078 39.7861 58.3078C42.1948 58.3085 44.1815 57.3846 44.4158 56.1964ZM53.1333 36.838C53.1333 36.838 52.7939 36.5933 52.2847 36.3421C51.7842 36.0843 50.7418 35.6361 50.7418 35.6361C50.7418 35.6361 50.3377 35.4666 50.3058 35.4051C50.2653 35.3508 51.2104 34.9092 51.1621 34.6311C51.1139 34.3459 51.1785 33.8231 51.1785 33.8231C51.1785 33.8231 51.8332 34.0946 52.7619 34.5022C53.6183 34.8758 54.329 35.4667 54.329 35.4667L53.1333 36.838ZM50.734 32.7775C50.1042 33.3278 50.3058 34.6174 50.3058 34.6174L48.0677 35.3777C48.0677 35.3777 46.3955 35.2082 44.4804 35.5203C42.679 35.8121 42.5256 35.9076 42.4205 35.9482L44.1815 34.4067C44.1815 34.4067 45.1834 33.4835 46.9038 32.8587C48.6165 32.241 50.305 31.7994 51.9204 31.433C53.5365 31.0666 56.6785 29.6677 56.6785 29.6677L57.0662 30.218C57.0662 30.218 56.0238 31.4199 55.0468 31.5763C54.0706 31.732 51.3638 32.2279 50.734 32.7775ZM63.9667 32.9745C63.6677 33.2597 63.4817 33.4024 63.094 33.5993C62.7063 33.7963 61.4296 34.6854 60.8239 34.8824C60.2183 35.0859 59.9108 34.957 59.9108 34.957C59.9108 34.957 59.8462 35.4935 60.1692 36.0705C60.4604 36.6071 60.581 36.6274 60.6052 36.6274C60.6052 36.6274 59.692 37.5034 59.474 37.4419C59.2561 37.3876 58.8193 37.1364 58.8193 36.8649C58.8193 36.5933 59.1502 35.9888 59.3043 35.8461C59.4577 35.7035 59.474 35.3777 59.474 35.3777C59.474 35.3777 58.715 35.7918 58.448 35.7781C58.1818 35.7643 57.826 35.5609 57.8906 35.466C57.9552 35.3777 59.014 34.427 59.2802 34.1895C58.989 34.4067 57.7209 35.3914 57.5029 35.3639C57.2686 35.3364 56.6949 34.7731 56.6949 34.7731C56.6949 34.7731 56.6302 34.6036 56.3796 34.5696C56.1289 34.5421 56.0884 34.9092 56.0884 34.9092C56.0884 34.9092 56.0721 34.4342 56.1935 34.3321C56.3064 34.2372 58.5282 32.5806 58.8676 32.5531C59.207 32.5191 59.4087 32.5806 59.6266 32.5053C59.8446 32.4373 62.753 30.2716 62.8908 30.3324C63.0278 30.3868 64.6276 31.9688 64.644 32.084C64.6619 32.2004 64.2742 32.6898 63.9667 32.9745ZM65.4209 24.6637C64.4758 25.1662 63.4903 25.7708 63.1508 25.9808C63.0699 26.0285 63.0294 26.0554 63.0294 26.0554C62.391 26.4898 61.0583 27.2776 59.8866 27.8069C58.3195 28.5063 56.7198 29.2398 56.7198 29.2398C56.7198 29.2398 56.8817 28.5469 56.6793 28.1197C56.4776 27.6989 56.1297 27.9973 56.4527 27.0604C56.7836 26.13 56.7595 25.8925 56.8326 25.4508C56.9051 25.0026 57.4383 23.7326 57.4383 23.7326C57.4383 23.7326 58.2222 24.3438 59.991 24.7919C61.235 25.1112 62.4634 25.3965 63.045 25.5862C63.934 25.0294 65.2987 24.2351 66.1472 24.0042C67.3189 23.6921 67.884 23.5697 68.0133 23.5494C67.8288 23.6181 66.496 24.0932 65.4209 24.6637ZM74.8577 21.2686C74.8577 21.2686 75.1886 20.2499 75.0594 19.8697C74.9379 19.4824 73.5974 18.6135 72.5628 18.7018C71.5289 18.7836 69.986 18.7221 67.5617 18.7018C65.1383 18.6815 63.3688 18.8713 62.0111 19.2311C60.6457 19.591 59.9917 21.037 59.9917 21.037C59.9917 20.7177 60.3389 19.6996 61.1229 19.2717C61.9068 18.851 62.7141 18.552 63.7487 18.4028C64.7825 18.2536 65.7681 18.1921 66.633 17.8323C67.4893 17.4724 68.0709 17.5542 68.9272 17.4927C69.7835 17.4319 69.5329 17.6419 70.6726 17.744C71.8037 17.8526 72.1836 17.6831 73.6698 18.4912C75.1645 19.2927 75.3419 19.3803 75.4634 19.8697C75.5926 20.3591 74.8577 21.2686 74.8577 21.2686ZM79.5349 16.7534C79.5349 16.7534 79.0826 16.9909 77.9436 17.6968C76.7962 18.4028 75.8191 19.9581 75.8191 19.9581C75.8191 19.9581 75.8915 19.4961 75.4797 19.1095C75.0679 18.7293 74.0738 18.2334 74.0738 18.2334C74.0738 18.2334 76.1983 15.9113 76.8452 15.1373C78.4364 13.2431 82.3148 10.3302 82.3148 10.3302L82.7025 11.1788C82.7025 11.1788 82.2339 11.7291 81.3698 13.338C80.5126 14.9541 79.5349 16.7534 79.5349 16.7534ZM100.678 19.8161C94.3759 23.9512 87.6708 25.5876 85.7161 23.4827C85.5463 23.2923 85.4249 23.0751 85.3362 22.8441C85.6592 22.6747 86.0064 22.4908 86.3785 22.2939C86.4595 22.5654 86.5802 22.8232 86.7826 23.0339C87.0979 23.3734 87.558 23.6044 88.1239 23.7399C88.0998 22.905 88.4953 21.8797 89.2387 20.7589C91.1616 19.7271 93.1732 18.6403 94.6842 17.8257C95.395 17.6223 96.1867 17.303 96.9948 16.8751L98.9822 19.0682C98.7479 19.3398 98.6592 19.5845 98.7721 19.7133C98.99 19.9581 99.7817 19.7677 100.549 19.2927C101.309 18.8176 101.761 18.2334 101.543 17.9958C101.43 17.8598 101.139 17.8598 100.775 17.9618L98.7799 15.7621C100.703 14.3567 101.729 12.8289 101.131 12.1433C101.066 12.0752 100.978 12.0346 100.889 11.9869C103.902 10.7169 106.625 10.1941 108.337 10.6017C108.321 10.1058 108.16 9.67136 107.837 9.33178C106.035 7.3964 99.8627 8.90387 94.0459 12.6863C90.9272 14.71 88.5607 16.9778 87.3003 18.9465C86.8153 19.1978 86.3389 19.449 85.8943 19.68L79.8595 23.3263L87.066 17.9082C88.528 16.0408 90.7739 14.0178 93.5858 12.1773C99.8954 8.04218 106.593 6.39926 108.548 8.51065C110.504 10.622 106.979 15.6803 100.678 19.8161Z" fill="#1E2424"/>
<path d="M75.1116 35.3161C75.061 35.1676 72.4857 32.5786 72.2584 32.6211C72.0311 32.6637 64.1038 38.4986 62.4876 39.1987C60.8715 39.8988 59.6851 39.7502 59.6851 39.7502C59.7606 40.8115 62.4876 42.1901 63.5222 42.3386C64.5576 42.4871 66.3497 41.9428 68.243 40.627C70.1386 39.3125 75.1622 35.4647 75.1116 35.3161Z" fill="#1E2424"/>
<path d="M63.4467 92.2259C40.5156 92.2259 19.8411 84.1813 5.41768 71.3448H0C15.2264 86.1446 38.0152 95.5535 63.4467 95.5535C88.8782 95.5535 111.667 86.1446 126.893 71.3448H121.486C107.062 84.1813 86.3777 92.2259 63.4467 92.2259Z" fill="#1E2424"/>
<path d="M127 68.8766V71.6966H42.4173L39.1399 70.8787C34.4378 71.3629 20.6119 72.7696 20.682 72.4294C20.682 72.0237 0.145508 71.6181 0.145508 71.6181V68.8766C0.604815 62.216 2.52768 55.8759 5.64941 50.092L5.65718 50.0724C5.68054 50.3341 6.03086 53.8084 6.38896 54.2467C6.49795 54.3776 6.61473 54.5477 6.73929 54.7506C7.05069 55.2478 7.38544 55.9283 7.57228 56.6349C7.58785 56.6938 7.61119 56.7527 7.63455 56.8116C7.52556 57.1583 7.43992 57.4986 7.43992 57.6556C7.43992 58.0351 7.18303 58.3361 6.79379 58.637C6.52132 58.8464 6.28778 59.324 6.18657 59.5268C6.36562 59.3044 7.05069 58.9773 7.30759 58.8399C7.60342 58.6828 7.86031 58.3099 7.86031 58.0089C7.86031 57.8911 7.93816 57.6621 8.02379 57.42C8.67772 58.2379 9.77538 59.0754 9.77538 59.481C9.77538 60.0306 8.86457 61.9935 9.25381 62.5366C9.64305 63.0796 11.0054 65.1014 11.1377 65.265C11.2701 65.4285 12.4378 62.8114 13.2163 61.3392C13.9948 59.8671 13.9948 58.1201 14.7032 57.0275C15.4194 55.9413 16.9141 53.8673 17.4279 53.4289C17.9495 52.997 17.171 53.5401 17.4279 54.1944C17.6926 54.8487 17.8872 55.0384 18.1441 55.9675C18.401 56.8966 18.5645 56.8115 18.8603 57.191C19.1484 57.5771 18.7591 57.6556 18.6968 57.9304C18.6346 58.1856 18.1519 59.3567 18.0896 59.5007C18.1752 59.3829 18.907 58.323 18.9615 58.5585C19.0238 58.8006 19.2184 59.5923 19.3741 60.3578C19.5376 61.1168 20.5808 64.1199 24.8936 66.5146C26.3681 67.3358 27.9048 67.9966 29.4166 68.5285C32.3017 69.544 41.1095 71.8602 50.519 68.2819C54.8093 66.6501 58.0906 64.1723 60.3692 59.9979C60.3692 59.9979 60.2603 61.6337 60.3692 62.2879C60.4705 62.9422 61.5447 63.6816 61.6382 64.8266C61.7394 65.9716 63.5766 68.098 63.5766 68.098C63.5766 68.098 66.4103 62.9488 66.6049 61.2738C66.675 60.6653 66.9241 59.782 67.2355 58.866C67.7337 59.1147 68.2008 58.9707 68.6523 59.2128C69.2362 59.5138 69.8201 60.2858 69.9057 60.3971C69.8746 60.2727 69.5554 59.2848 69.135 58.8399C68.6835 58.3557 68.5511 58.0678 68.2242 57.8453C68.0918 57.7537 67.9206 57.564 67.7804 57.3742C68.1852 56.3143 68.5745 55.4114 68.7458 55.0908C69.135 54.358 70.0147 50.6154 70.4039 49.9939C70.7932 49.3723 71.3692 47.5665 71.3692 47.5665C71.3692 47.5665 72.537 50.923 73.1286 52.068C73.7047 53.213 74.9736 54.9337 75.6509 57.1387C76.336 59.3436 75.5575 60.7438 75.6509 61.2738C75.7521 61.8038 75.8144 62.4057 76.4683 61.2738C77.1145 60.1353 76.7875 62.8114 77.4415 63.7928C78.0876 64.7742 79.0607 66.5735 79.1931 67.0643C79.2943 67.4699 80.5943 64.6565 81.295 62.7918C81.295 62.7918 81.295 62.7852 81.3027 62.7918C81.3572 62.7198 81.6453 62.3992 81.8788 62.4253C82.1435 62.4515 82.4316 62.6151 82.6262 62.7525C82.8208 62.8899 83.21 62.6151 82.9531 62.5627C82.6962 62.5104 82.4004 62.0982 82.0812 61.9608C81.9489 61.9085 81.8088 61.7645 81.6998 61.614C82.1357 60.0764 82.5172 57.6294 82.8909 56.6349C83.2801 55.6142 84.0586 52.8335 84.0586 52.8335C84.0586 52.8335 84.5724 51.466 84.8993 51.6296C85.2263 51.7932 85.1563 53.213 85.6156 53.6514C86.0671 54.0832 87.4294 55.8563 87.4294 56.1965C87.4294 56.5368 87.4294 57.4985 87.4294 57.4985C87.4294 57.4985 87.1725 57.9042 87.4294 58.2837C87.6863 58.6632 87.1725 58.6108 88.2079 59.481C89.2433 60.3578 90.0218 60.8485 90.0218 60.8485C90.0218 60.8485 88.7918 60.5541 88.9241 61.2738C89.0487 61.9935 88.4648 60.626 89.3756 62.7525C90.2865 64.8789 90.2164 64.6107 90.3488 65.5332C90.4811 66.4623 90.9949 66.6782 91.1272 67.1166C91.2596 67.555 91.5788 67.8821 91.5788 67.8821C91.5788 67.8821 92.8477 64.8331 93.8909 62.4319C94.755 62.5235 95.9072 62.6674 96.5299 62.7852C97.5264 62.9749 98.4917 63.2367 98.6007 63.2628C98.4139 63.1385 96.6545 62.0001 96.3353 61.843C95.9928 61.6795 95.2143 61.8823 94.8718 61.843C94.7005 61.8234 94.4592 61.6925 94.2645 61.5748C94.7316 60.5345 95.0975 59.7428 95.2143 59.5923C95.6035 59.1016 96.8725 56.7919 97.2617 56.6349C97.651 56.4844 99.3014 56.1965 99.3014 56.1965C99.3014 56.1965 97.8378 55.3394 97.8378 54.5215C97.8378 53.7037 98.0402 52.9709 98.4295 52.3166C98.8187 51.6623 98.9121 51.1062 99.3014 49.9939C99.5894 49.1695 100.399 46.6505 100.812 45.3746C100.882 45.1456 101.271 45.1325 101.364 45.3615C101.956 46.7552 103.217 49.7125 103.583 50.5108C103.887 51.1847 104.237 51.6296 104.525 52.3232C104.525 52.3232 104.214 52.7615 104.12 53.3373C104.019 53.9065 103.194 54.3187 102.952 54.5215C102.711 54.7244 102.369 55.0908 102.369 55.2609C102.369 55.4179 102.509 54.9338 103.1 54.8094C103.676 54.6851 104.377 54.7571 105 54.2271L105.008 54.2206C105.226 55.7582 105.179 56.3928 105.724 57.5051C106.308 58.6894 106.502 59.7559 106.697 60.1681C106.892 60.5737 108.456 62.4581 109.087 63.7666C109.718 65.0752 110.885 66.2987 110.885 66.2987C110.885 66.2987 110.885 65.1537 111.461 63.6816C112.053 62.2094 112.24 58.5323 113.018 58.0351C113.797 57.5509 114.676 54.0308 114.965 52.9709C115.26 51.9044 117.012 54.6851 117.3 55.503C117.401 55.7843 117.549 56.1049 117.697 56.4059C117.736 56.2489 117.767 56.0984 117.79 55.9937C117.876 55.5684 118.226 55.1758 118.133 54.6459C118.032 54.1093 118.67 54.1093 118.67 53.9065C118.67 53.7037 119.231 53.6841 119.324 53.298C119.417 52.912 119.542 52.4147 119.542 51.7801C119.542 51.1454 119.449 51.1651 119.542 50.7986C119.635 50.4322 119.69 49.9415 120.025 49.0452C120.367 48.1422 120.546 48.404 120.546 48.404C124.221 54.6393 126.486 61.5617 127 68.8766Z" fill="#1E2424"/>
<path d="M112.769 12.4835L125.877 23.0503L111.79 13.8464L112.769 12.4835Z" fill="#1E2424"/>
<path d="M86.0352 33.2571L98.421 44.0103L84.8208 34.7528L85.3136 33.4436" fill="#1E2424"/>
<path d="M94.7581 26.7902L102.37 32.9267L94.4724 27.5505L94.7581 26.7902Z" fill="#1E2424"/>
<path d="M111.464 15.1321L119.077 21.2686L111.178 15.8924L111.464 15.1321Z" fill="#1E2424"/>
<path d="M57.3533 46.1748L64.9654 52.3114L57.0676 46.9351L57.3533 46.1748Z" fill="#1E2424"/>
<path d="M27.5296 54.4286L35.1417 60.5652L27.2432 55.1889L27.5296 54.4286Z" fill="#1E2424"/>
<path d="M74.3602 39.5527L81.9715 45.6893L74.0737 40.313L74.3602 39.5527Z" fill="#1E2424"/>
</svg>
