<svg width="11" height="17" viewBox="0 0 11 17" fill="none" xmlns="http://www.w3.org/2000/svg">
<g clip-path="url(#clip0_43_860)">
<path d="M10.111 7.16125C10.111 7.23417 10.0797 7.30188 10.0172 7.36438L5.86096 11.5363C5.79846 11.5883 5.72555 11.6144 5.64221 11.6144C5.5693 11.6144 5.50159 11.5883 5.43909 11.5363L1.28284 7.36438C1.22034 7.30188 1.18909 7.23417 1.18909 7.16125C1.18909 7.08834 1.22034 7.02063 1.28284 6.95813L1.72034 6.505C1.78284 6.45292 1.85575 6.42688 1.93909 6.42688C2.012 6.42688 2.07971 6.45292 2.14221 6.505L5.64221 10.0206L9.15784 6.505C9.22034 6.45292 9.28804 6.42688 9.36096 6.42688C9.44429 6.42688 9.51721 6.45292 9.57971 6.505L10.0172 6.95813C10.0797 7.02063 10.111 7.08834 10.111 7.16125Z" fill="#BBBBBB"/>
</g>
<defs>
<clipPath id="clip0_43_860">
<rect width="10.3" height="16" fill="white" transform="matrix(1 0 0 -1 0.5 16.38)"/>
</clipPath>
</defs>
</svg>
