<svg width="42" height="39" viewBox="0 0 42 39" fill="none" xmlns="http://www.w3.org/2000/svg">
<g clip-path="url(#clip0_57_935)">
<path d="M41.9999 36.3201L31.0414 26.3578C33.888 23.1928 35.2875 19.1542 34.9506 15.0774C34.6137 11.0007 32.566 7.19757 29.2311 4.45481C25.8963 1.71205 21.5294 0.239466 17.0337 0.341654C12.5381 0.443841 8.25759 2.11298 5.07769 5.00383C1.89778 7.89467 0.0617354 11.786 -0.0506703 15.873C-0.163076 19.96 1.45676 23.9299 4.47377 26.9617C7.49079 29.9934 11.6742 31.8549 16.1586 32.1612C20.643 32.4675 25.0854 31.1951 28.5669 28.6073L39.5254 38.5697L41.9999 36.3201ZM17.4999 29.0241C14.7309 29.0241 12.0242 28.2777 9.72188 26.8792C7.41959 25.4807 5.62518 23.493 4.56555 21.1673C3.50592 18.8417 3.22867 16.2827 3.76887 13.8138C4.30906 11.3449 5.64243 9.07714 7.60037 7.29719C9.5583 5.51723 12.0529 4.30507 14.7686 3.81398C17.4843 3.3229 20.2993 3.57494 22.8574 4.53824C25.4156 5.50155 27.6021 7.13284 29.1404 9.22585C30.6788 11.3188 31.4999 13.7796 31.4999 16.2968C31.4957 19.6711 30.0194 22.9062 27.3948 25.2922C24.7701 27.6782 21.2116 29.0204 17.4999 29.0241Z" fill="#14213D" fill-opacity="0.6"/>
</g>
<defs>
<clipPath id="clip0_57_935">
<rect width="42" height="38.1821" fill="white" transform="translate(0 0.387207)"/>
</clipPath>
</defs>
</svg>
