<svg width="42" height="39" viewBox="0 0 42 39" fill="none" xmlns="http://www.w3.org/2000/svg">
<g clip-path="url(#clip0_0_37)">
<path d="M42 36.051L31.0415 26.327C33.8881 23.2377 35.2877 19.2958 34.9507 15.3165C34.6138 11.3372 32.5661 7.62513 29.2313 4.94798C25.8964 2.27082 21.5295 0.833466 17.0339 0.933209C12.5382 1.03295 8.25773 2.66217 5.07782 5.48386C1.89792 8.30555 0.0618727 12.1038 -0.050533 16.0931C-0.162939 20.0823 1.45689 23.9573 4.47391 26.9164C7.49093 29.8756 11.6743 31.6926 16.1587 31.9916C20.6432 32.2906 25.0855 31.0487 28.567 28.5227L39.5255 38.2468L42 36.051ZM17.5 28.9296C14.7311 28.9296 12.0243 28.201 9.72202 26.836C7.41973 25.4709 5.62531 23.5307 4.56569 21.2607C3.50606 18.9907 3.22881 16.4929 3.76901 14.0831C4.3092 11.6733 5.64257 9.45974 7.6005 7.72236C9.55844 5.98499 12.053 4.80182 14.7687 4.32248C17.4845 3.84314 20.2994 4.08915 22.8576 5.02941C25.4157 5.96967 27.6022 7.56195 29.1406 9.60489C30.6789 11.6478 31.5 14.0497 31.5 16.5067C31.4958 19.8003 30.0195 22.958 27.3949 25.2869C24.7703 27.6159 21.2118 28.9259 17.5 28.9296Z" fill="#14213D" fill-opacity="0.6"/>
</g>
<defs>
<clipPath id="clip0_0_37">
<rect width="42" height="37.2687" fill="white" transform="translate(0 0.978027)"/>
</clipPath>
</defs>
</svg>
