<svg width="42" height="36" viewBox="0 0 42 36" fill="none" xmlns="http://www.w3.org/2000/svg">
<g clip-path="url(#clip0_57_570)">
<path d="M41.9999 33.92L31.0414 24.7099C33.888 21.7838 35.2875 18.0502 34.9506 14.2812C34.6137 10.5122 32.566 6.99623 29.2311 4.46055C25.8963 1.92486 21.5294 0.563455 17.0337 0.657928C12.5381 0.7524 8.25759 2.29552 5.07769 4.96811C1.89778 7.6407 0.0617354 11.2383 -0.0506703 15.0167C-0.163076 18.7951 1.45676 22.4653 4.47377 25.2681C7.49079 28.071 11.6742 29.7919 16.1586 30.0751C20.643 30.3583 25.0854 29.182 28.5669 26.7896L39.5254 35.9998L41.9999 33.92ZM17.4999 27.1749C14.7309 27.1749 12.0242 26.4848 9.72188 25.1919C7.41959 23.899 5.62518 22.0613 4.56555 19.9113C3.50592 17.7613 3.22867 15.3954 3.76887 13.1129C4.30906 10.8305 5.64243 8.7339 7.60037 7.08833C9.5583 5.44276 12.0529 4.32211 14.7686 3.8681C17.4843 3.41409 20.2993 3.6471 22.8574 4.53768C25.4156 5.42826 27.6021 6.93639 29.1404 8.87138C30.6788 10.8064 31.4999 13.0813 31.4999 15.4085C31.4957 18.528 30.0194 21.5189 27.3948 23.7247C24.7701 25.9306 21.2116 27.1714 17.4999 27.1749Z" fill="#14213D" fill-opacity="0.6"/>
</g>
<defs>
<clipPath id="clip0_57_570">
<rect width="42" height="35.2994" fill="white" transform="translate(0 0.700073)"/>
</clipPath>
</defs>
</svg>
