<svg width="28" height="29" viewBox="0 0 28 29" fill="none" xmlns="http://www.w3.org/2000/svg">
<path d="M22.0626 0.189941H5.9374C4.73499 0.189941 3.75674 1.16813 3.75674 2.37055V26.0093C3.75674 27.2117 4.73494 28.1899 5.93735 28.1899H22.0626C23.265 28.1899 24.2432 27.2117 24.2432 26.0093V2.37055C24.2432 1.16813 23.2649 0.189941 22.0626 0.189941ZM23.2037 26.0093H23.2036C23.2036 26.6385 22.6918 27.1504 22.0626 27.1504H5.9374C5.30823 27.1504 4.79635 26.6385 4.79635 26.0093V2.37055C4.79635 1.74137 5.30823 1.22949 5.9374 1.22949H22.0626C22.6918 1.22949 23.2037 1.74137 23.2037 2.37055V26.0093Z" fill="#FCA311"/>
<path d="M20.8961 2.9834H7.10395C7.03569 2.98339 6.9681 2.99683 6.90504 3.02295C6.84198 3.04906 6.78468 3.08735 6.73641 3.13561C6.68815 3.18388 6.64986 3.24118 6.62375 3.30424C6.59763 3.3673 6.58419 3.43489 6.5842 3.50315V8.00512C6.58419 8.07338 6.59763 8.14097 6.62375 8.20403C6.64986 8.26709 6.68815 8.32439 6.73641 8.37266C6.78468 8.42092 6.84198 8.45921 6.90504 8.48532C6.9681 8.51144 7.03569 8.52488 7.10395 8.52487H20.8961C20.9643 8.52488 21.0319 8.51144 21.095 8.48532C21.158 8.45921 21.2153 8.42092 21.2636 8.37266C21.3119 8.32439 21.3501 8.26709 21.3763 8.20403C21.4024 8.14097 21.4158 8.07338 21.4158 8.00512V3.50315C21.4158 3.3653 21.361 3.2331 21.2636 3.13563C21.1661 3.03816 21.0339 2.9834 20.8961 2.9834ZM20.3763 7.48537H7.62375V4.0229H20.3763V7.48537ZM10.1235 10.1186H7.10395C7.03569 10.1186 6.9681 10.132 6.90504 10.1581C6.84198 10.1842 6.78468 10.2225 6.73641 10.2708C6.68815 10.3191 6.64986 10.3764 6.62375 10.4394C6.59763 10.5025 6.58419 10.5701 6.5842 10.6383V13.8832C6.58419 13.9515 6.59763 14.019 6.62375 14.0821C6.64986 14.1452 6.68815 14.2025 6.73641 14.2507C6.78468 14.299 6.84198 14.3373 6.90504 14.3634C6.9681 14.3895 7.03569 14.403 7.10395 14.4029H10.1235C10.1917 14.403 10.2593 14.3895 10.3224 14.3634C10.3854 14.3373 10.4427 14.299 10.491 14.2507C10.5393 14.2025 10.5775 14.1452 10.6037 14.0821C10.6298 14.019 10.6432 13.9515 10.6432 13.8832V10.6383C10.6433 10.3513 10.4106 10.1186 10.1235 10.1186ZM9.60371 13.3635H7.62375V11.1581H9.60371V13.3635ZM10.1235 15.7045H7.10395C7.03569 15.7045 6.9681 15.7179 6.90504 15.7441C6.84198 15.7702 6.78468 15.8085 6.73641 15.8567C6.68815 15.905 6.64986 15.9623 6.62375 16.0253C6.59763 16.0884 6.58419 16.156 6.5842 16.2243V19.4691C6.58419 19.5374 6.59763 19.605 6.62375 19.668C6.64986 19.7311 6.68815 19.7884 6.73641 19.8367C6.78468 19.8849 6.84198 19.9232 6.90504 19.9493C6.9681 19.9755 7.03569 19.9889 7.10395 19.9889H10.1235C10.1917 19.9889 10.2593 19.9755 10.3224 19.9493C10.3854 19.9232 10.4427 19.8849 10.491 19.8367C10.5393 19.7884 10.5775 19.7311 10.6037 19.668C10.6298 19.605 10.6432 19.5374 10.6432 19.4691V16.2243C10.6433 15.9373 10.4106 15.7045 10.1235 15.7045ZM9.60371 18.9494H7.62375V16.7441H9.60371V18.9494ZM10.1235 21.2905H7.10395C7.03569 21.2905 6.9681 21.3039 6.90504 21.33C6.84198 21.3562 6.78468 21.3944 6.73641 21.4427C6.68815 21.491 6.64986 21.5483 6.62375 21.6113C6.59763 21.6744 6.58419 21.742 6.5842 21.8102V25.0551C6.58419 25.1234 6.59763 25.191 6.62375 25.254C6.64986 25.3171 6.68815 25.3744 6.73641 25.4227C6.78468 25.4709 6.84198 25.5092 6.90504 25.5353C6.9681 25.5614 7.03569 25.5749 7.10395 25.5749H10.1235C10.1917 25.5749 10.2593 25.5614 10.3224 25.5353C10.3854 25.5092 10.4427 25.4709 10.491 25.4227C10.5393 25.3744 10.5775 25.3171 10.6037 25.254C10.6298 25.191 10.6432 25.1234 10.6432 25.0551V21.8102C10.6433 21.5232 10.4106 21.2905 10.1235 21.2905ZM9.60371 24.5354H7.62375V22.33H9.60371V24.5354ZM15.5098 10.1186H12.4903C12.422 10.1186 12.3544 10.132 12.2914 10.1581C12.2283 10.1842 12.171 10.2225 12.1227 10.2708C12.0745 10.3191 12.0362 10.3764 12.0101 10.4394C11.984 10.5025 11.9705 10.5701 11.9705 10.6383V13.8832C11.9705 13.9515 11.984 14.019 12.0101 14.0821C12.0362 14.1452 12.0745 14.2025 12.1227 14.2507C12.171 14.299 12.2283 14.3373 12.2914 14.3634C12.3544 14.3895 12.422 14.403 12.4903 14.4029H15.5098C15.578 14.403 15.6456 14.3895 15.7087 14.3634C15.7718 14.3373 15.8291 14.299 15.8773 14.2507C15.9256 14.2025 15.9639 14.1452 15.99 14.0821C16.0161 14.019 16.0295 13.9515 16.0295 13.8832V10.6383C16.0295 10.3513 15.7968 10.1186 15.5098 10.1186ZM14.99 13.3635H13.01V11.1581H14.99V13.3635ZM15.5098 15.7045H12.4903C12.422 15.7045 12.3544 15.7179 12.2914 15.7441C12.2283 15.7702 12.171 15.8085 12.1227 15.8567C12.0745 15.905 12.0362 15.9623 12.0101 16.0253C11.984 16.0884 11.9705 16.156 11.9705 16.2243V19.4691C11.9705 19.5374 11.984 19.605 12.0101 19.668C12.0362 19.7311 12.0745 19.7884 12.1227 19.8367C12.171 19.8849 12.2283 19.9232 12.2914 19.9493C12.3544 19.9755 12.422 19.9889 12.4903 19.9889H15.5098C15.578 19.9889 15.6456 19.9755 15.7087 19.9493C15.7718 19.9232 15.8291 19.8849 15.8773 19.8367C15.9256 19.7884 15.9639 19.7311 15.99 19.668C16.0161 19.605 16.0295 19.5374 16.0295 19.4691V16.2243C16.0295 15.9373 15.7968 15.7045 15.5098 15.7045ZM14.99 18.9494H13.01V16.7441H14.99V18.9494ZM15.5098 21.2905H12.4903C12.422 21.2905 12.3544 21.3039 12.2914 21.33C12.2283 21.3562 12.171 21.3944 12.1227 21.4427C12.0745 21.491 12.0362 21.5483 12.0101 21.6113C11.984 21.6744 11.9705 21.742 11.9705 21.8102V25.0551C11.9705 25.1234 11.984 25.191 12.0101 25.254C12.0362 25.3171 12.0745 25.3744 12.1227 25.4227C12.171 25.4709 12.2283 25.5092 12.2914 25.5353C12.3544 25.5614 12.422 25.5749 12.4903 25.5749H15.5098C15.578 25.5749 15.6456 25.5614 15.7087 25.5353C15.7718 25.5092 15.8291 25.4709 15.8773 25.4227C15.9256 25.3744 15.9639 25.3171 15.99 25.254C16.0161 25.191 16.0295 25.1234 16.0295 25.0551V21.8102C16.0295 21.6724 15.9748 21.5402 15.8773 21.4427C15.7798 21.3453 15.6476 21.2905 15.5098 21.2905ZM14.99 24.5354H13.01V22.33H14.99V24.5354ZM20.8961 10.1186H17.8765C17.8083 10.1186 17.7407 10.132 17.6776 10.1581C17.6146 10.1842 17.5573 10.2225 17.509 10.2708C17.4607 10.3191 17.4225 10.3764 17.3963 10.4394C17.3702 10.5025 17.3568 10.5701 17.3568 10.6383V13.8832C17.3568 13.9515 17.3702 14.019 17.3963 14.0821C17.4225 14.1452 17.4607 14.2025 17.509 14.2507C17.5573 14.299 17.6146 14.3373 17.6776 14.3634C17.7407 14.3895 17.8083 14.403 17.8765 14.4029H20.8961C20.9643 14.403 21.0319 14.3895 21.095 14.3634C21.158 14.3373 21.2153 14.299 21.2636 14.2507C21.3119 14.2025 21.3501 14.1452 21.3763 14.0821C21.4024 14.019 21.4158 13.9515 21.4158 13.8832V10.6383C21.4158 10.3513 21.1831 10.1186 20.8961 10.1186ZM20.3763 13.3635H18.3963V11.1581H20.3762V13.3635H20.3763ZM20.8961 15.7045H17.8765C17.8083 15.7045 17.7407 15.7179 17.6776 15.7441C17.6146 15.7702 17.5573 15.8085 17.509 15.8567C17.4607 15.905 17.4225 15.9623 17.3963 16.0253C17.3702 16.0884 17.3568 16.156 17.3568 16.2243V25.0552C17.3568 25.1234 17.3702 25.191 17.3963 25.2541C17.4225 25.3171 17.4607 25.3744 17.509 25.4227C17.5573 25.471 17.6146 25.5093 17.6776 25.5354C17.7407 25.5615 17.8083 25.5749 17.8765 25.5749H20.8961C20.9643 25.5749 21.0319 25.5615 21.095 25.5354C21.158 25.5093 21.2153 25.471 21.2636 25.4227C21.3119 25.3744 21.3501 25.3171 21.3763 25.2541C21.4024 25.191 21.4158 25.1234 21.4158 25.0552V16.2243C21.4158 15.9373 21.1831 15.7045 20.8961 15.7045ZM20.3763 24.5354H18.3963V16.7441H20.3762V24.5354H20.3763Z" fill="#FCA311"/>
</svg>
